<?xml version="1.0" encoding="UTF-8"?>
<svg version="1.1" xmlns="http://www.w3.org/2000/svg" width="32" height="32">
<path d="M0 0 C1.4375 1.8125 1.4375 1.8125 2 4 C1.125 6.25 1.125 6.25 0 8 C-1.65 8 -3.3 8 -5 8 C-4.67 10.31 -4.34 12.62 -4 15 C-1.36 14.67 1.28 14.34 4 14 C3.608125 12.741875 3.21625 11.48375 2.8125 10.1875 C2.24609375 7.98046875 2.24609375 7.98046875 2 6 C3.375 4 3.375 4 5 3 C5.99 4.32 6.98 5.64 8 7 C7.67 7.33 7.34 7.66 7 8 C6.95936168 9.66617115 6.957279 11.33388095 7 13 C7.9075 12.938125 8.815 12.87625 9.75 12.8125 C13.32610265 13.01881361 14.50548587 13.50548587 17 16 C18.19334591 19.58003773 18.33543224 22.24315896 18 26 C16.3125 28 16.3125 28 14 29 C11.1648797 28.77617471 8.95430788 27.98193567 6.3125 26.9375 C3.18304269 26.05180454 1.13779224 25.95803942 -2.0625 26.0625 C-5.24586131 26.11523641 -7.02366265 25.9913076 -10.0625 24.875 C-12.71272015 22.31027083 -12.6819286 20.65570064 -13 17 C-12.63424575 14.34691695 -12.20734145 11.85010347 -11.625 9.25 C-11.48578125 8.57839844 -11.3465625 7.90679687 -11.203125 7.21484375 C-10.16580466 2.33160932 -10.16580466 2.33160932 -9 0 C-5.78225378 -1.26411459 -3.25358555 -1.11306874 0 0 Z " fill="#45193D" transform="translate(13,2)"/>
<path d="M0 0 C1.4540625 0.0309375 1.4540625 0.0309375 2.9375 0.0625 C2.9375 1.0525 2.9375 2.0425 2.9375 3.0625 C1.9475 2.7325 0.9575 2.4025 -0.0625 2.0625 C-0.0625 2.7225 -0.0625 3.3825 -0.0625 4.0625 C0.9275 4.3925 1.9175 4.7225 2.9375 5.0625 C1.9475 5.5575 1.9475 5.5575 0.9375 6.0625 C-0.0525 5.7325 -1.0425 5.4025 -2.0625 5.0625 C-2.0625 8.6925 -2.0625 12.3225 -2.0625 16.0625 C-1.0725 15.7325 -0.0825 15.4025 0.9375 15.0625 C7.98811082 14.58780541 7.98811082 14.58780541 10.9375 16.0625 C10.9375 15.4025 10.9375 14.7425 10.9375 14.0625 C13.2475 14.0625 15.5575 14.0625 17.9375 14.0625 C17.9375 15.0525 17.9375 16.0425 17.9375 17.0625 C16.761875 17.1553125 16.761875 17.1553125 15.5625 17.25 C14.69625 17.518125 13.83 17.78625 12.9375 18.0625 C11.56283375 20.53886012 11.56283375 20.53886012 10.9375 23.0625 C7.9675 22.7325 4.9975 22.4025 1.9375 22.0625 C1.9375 22.3925 1.9375 22.7225 1.9375 23.0625 C-1.4375 23.25 -1.4375 23.25 -5.0625 23.0625 C-7.58254648 19.28243028 -7.54559473 16.43166554 -7.0625 12.0625 C-4.44816944 0.09077897 -4.44816944 0.09077897 0 0 Z " fill="#E9C3BD" transform="translate(9.0625,2.9375)"/>
<path d="M0 0 C1.32 1.32 2.64 2.64 4 4 C3.67 4.33 3.34 4.66 3 5 C2.95936168 6.66617115 2.957279 8.33388095 3 10 C3.9075 9.938125 4.815 9.87625 5.75 9.8125 C9.32610265 10.01881361 10.50548587 10.50548587 13 13 C14.1577506 16.47325181 14.06866652 19.36067448 14 23 C13.67 23 13.34 23 13 23 C12.86722656 22.36191406 12.73445313 21.72382813 12.59765625 21.06640625 C12.42105469 20.24011719 12.24445312 19.41382812 12.0625 18.5625 C11.88847656 17.73878906 11.71445312 16.91507813 11.53515625 16.06640625 C11.19247006 14.02338796 11.19247006 14.02338796 10 13 C7.67182036 12.63239269 5.3381615 12.29758419 3 12 C3 12.66 3 13.32 3 14 C-1.29 14 -5.58 14 -10 14 C-10 10.37 -10 6.74 -10 3 C-9.01 3.33 -8.02 3.66 -7 4 C-7.66 4 -8.32 4 -9 4 C-8.67 6.64 -8.34 9.28 -8 12 C-5.36 11.67 -2.72 11.34 0 11 C-0.37125 9.741875 -0.7425 8.48375 -1.125 7.1875 C-1.7578125 5.04296875 -1.7578125 5.04296875 -2 3 C-1.34 2.01 -0.68 1.02 0 0 Z " fill="#411638" transform="translate(17,5)"/>
<path d="M0 0 C0.9765625 6.0546875 0.9765625 6.0546875 1 8 C-1 10 -1 10 -3.5 10.25 C-6 10 -6 10 -8 8 C-8.3125 5 -8.3125 5 -8 2 C-4.77208445 -0.1519437 -3.71599191 -0.20086443 0 0 Z " fill="#436C4C" transform="translate(29,19)"/>
<path d="M0 0 C0.4640625 0.9590625 0.4640625 0.9590625 0.9375 1.9375 C1.8345163 3.93610821 1.8345163 3.93610821 3 5 C6.63194641 5.19149081 6.63194641 5.19149081 10 4 C9.67 4.99 9.34 5.98 9 7 C6.875 7.6875 6.875 7.6875 4 8 C3.154375 7.525625 2.30875 7.05125 1.4375 6.5625 C-2.95542951 4.56571386 -6.43725685 4.85375702 -11.1953125 5.08984375 C-14.07114369 4.99772102 -15.57744976 4.48946271 -18 3 C-15.29120665 1.64560332 -12.99066732 1.93498549 -10 2 C-10 1.67 -10 1.34 -10 1 C-7.03 1.33 -4.06 1.66 -1 2 C-0.67 1.34 -0.34 0.68 0 0 Z " fill="#3B1836" transform="translate(20,23)"/>
<path d="M0 0 C1.32 0.33 2.64 0.66 4 1 C4.625 3.375 4.625 3.375 5 6 C3 8 3 8 0.375 8.125 C-0.40875 8.08375 -1.1925 8.0425 -2 8 C-2.33 6.35 -2.66 4.7 -3 3 C-2.67 3.66 -2.34 4.32 -2 5 C-0.35 5 1.3 5 3 5 C3 4.34 3 3.68 3 3 C2.34 3 1.68 3 1 3 C0.67 2.01 0.34 1.02 0 0 Z " fill="#38B755" transform="translate(25,21)"/>
<path d="M0 0 C1.32 0.66 2.64 1.32 4 2 C4 2.66 4 3.32 4 4 C3.34 4 2.68 4 2 4 C2 5.98 2 7.96 2 10 C1.34 10 0.68 10 0 10 C0 8.02 0 6.04 0 4 C-0.66 4 -1.32 4 -2 4 C-1.34 2.68 -0.68 1.36 0 0 Z " fill="#390D32" transform="translate(24,4)"/>
<path d="M0 0 C1.65 0.33 3.3 0.66 5 1 C6 4 6 4 5.0625 6.1875 C4.5365625 7.0846875 4.5365625 7.0846875 4 8 C2.35 8 0.7 8 -1 8 C-0.01 7.34 0.98 6.68 2 6 C1.34 5.67 0.68 5.34 0 5 C0 4.34 0 3.68 0 3 C0.99 2.67 1.98 2.34 3 2 C2.01 1.34 1.02 0.68 0 0 Z " fill="#522945" transform="translate(9,2)"/>
<path d="M0 0 C0.66 0.66 1.32 1.32 2 2 C-0.75078884 2.91692961 -2.35948913 3.10886083 -5.1875 3.0625 C-7.0746875 3.0315625 -7.0746875 3.0315625 -9 3 C-6.40257043 -0.46323942 -4.16948329 -0.44356205 0 0 Z " fill="#936A79" transform="translate(16,24)"/>
</svg>
