<?xml version="1.0" encoding="UTF-8"?>
<svg version="1.1" xmlns="http://www.w3.org/2000/svg" width="32" height="32">
<path d="M0 0 C6.75 1.75 6.75 1.75 9 4 C9.125 7.125 9.125 7.125 9 10 C9.66 10.33 10.32 10.66 11 11 C11 11.99 11 12.98 11 14 C11.66 14.66 12.32 15.32 13 16 C9.32940572 21.50589142 2.23643479 22.25463107 -3.9453125 23.52734375 C-6.41912555 24.09641481 -8.68884814 24.956254 -11 26 C-12.25 23.875 -12.25 23.875 -13 21 C-11.25 18 -11.25 18 -9 15 C-8.67 14.175 -8.34 13.35 -8 12.5 C-6.14552368 7.86380921 -3.02912521 3.93786277 0 0 Z " fill="#48B7A0" transform="translate(16,3)"/>
<path d="M0 0 C0.99 0 1.98 0 3 0 C3 0.99 3 1.98 3 3 C3.66 3.66 4.32 4.32 5 5 C2.33420718 8.99868922 -0.46189142 9.78983771 -5 11 C-8.5 11.1875 -8.5 11.1875 -11 11 C-11.33 10.01 -11.66 9.02 -12 8 C-5.92560175 2.11816193 -5.92560175 2.11816193 -2.0625 1.625 C-1.381875 1.74875 -0.70125 1.8725 0 2 C0 1.34 0 0.68 0 0 Z " fill="#43A590" transform="translate(24,14)"/>
<path d="M0 0 C0.99 0.33 1.98 0.66 3 1 C2.79503906 1.60328125 2.59007812 2.2065625 2.37890625 2.828125 C2.10949219 3.62734375 1.84007812 4.4265625 1.5625 5.25 C1.29566406 6.03890625 1.02882813 6.8278125 0.75390625 7.640625 C-0.02293607 9.94749576 -0.02293607 9.94749576 -0.4765625 12.15625 C-1.25031457 14.88170504 -2.87811505 16.19961277 -5 18 C-5.66 18 -6.32 18 -7 18 C-7.99706155 15.19576439 -8.3915312 13.90426939 -8 11 C-5.67592423 7.0506594 -2.91584847 3.52836806 0 0 Z " fill="#44A893" transform="translate(16,3)"/>
<path d="M0 0 C0.33 1.32 0.66 2.64 1 4 C2.65 3.01 4.3 2.02 6 1 C6 5.8 6 5.8 5 8 C2.75192406 9.58338041 0.46295973 10.74612959 -2 12 C-2.99 11.01 -3.98 10.02 -5 9 C-3.90931332 5.22454612 -3.0916909 2.52956528 0 0 Z " fill="#E1E1E3" transform="translate(8,17)"/>
<path d="M0 0 C-1 3 -1 3 -3.1875 4.1875 C-6.25390311 5.07334979 -8.82438155 5.14770318 -12 5 C-11 2 -11 2 -8.25 0.25 C-4.82103483 -1.06883276 -3.42681118 -1.10867421 0 0 Z " fill="#55B6A1" transform="translate(25,20)"/>
<path d="M0 0 C0.8214856 2.75197675 1.04631835 3.83402593 0.25 6.6875 C-1 9 -1 9 -4 10 C-4.33 10.66 -4.66 11.32 -5 12 C-5.68359375 10.265625 -5.68359375 10.265625 -6 8 C-4.78515625 5.859375 -4.78515625 5.859375 -3.0625 3.75 C-2.49660156 3.04359375 -1.93070313 2.3371875 -1.34765625 1.609375 C-0.90292969 1.07828125 -0.45820313 0.5471875 0 0 Z " fill="#56B7A5" transform="translate(14,6)"/>
<path d="M0 0 C0.99 0.66 1.98 1.32 3 2 C3.25 5.0625 3.25 5.0625 3 8 C2 9 2 9 -0.5625 9.0625 C-1.366875 9.041875 -2.17125 9.02125 -3 9 C-1.125 2.25 -1.125 2.25 0 0 Z " fill="#43A48F" transform="translate(22,5)"/>
<path d="M0 0 C4.455 0.99 4.455 0.99 9 2 C9 2.66 9 3.32 9 4 C5.68885166 5.12880057 2.41021743 6.21302675 -1 7 C-0.67 4.69 -0.34 2.38 0 0 Z " fill="#58BBA7" transform="translate(15,12)"/>
<path d="M0 0 C0.66 0.66 1.32 1.32 2 2 C1.34 2.66 0.68 3.32 0 4 C0 4.99 0 5.98 0 7 C-0.66 6.67 -1.32 6.34 -2 6 C-2 5.34 -2 4.68 -2 4 C-3.98 4.66 -5.96 5.32 -8 6 C-5.51047079 3.33264727 -3.36591866 1.44253657 0 0 Z " fill="#B9D4CF" transform="translate(13,18)"/>
<path d="M0 0 C0.33 0.99 0.66 1.98 1 3 C0.01 3.99 -0.98 4.98 -2 6 C-1.67 6.99 -1.34 7.98 -1 9 C-2.32 8.34 -3.64 7.68 -5 7 C-1.125 1.125 -1.125 1.125 0 0 Z " fill="#ECEBEC" transform="translate(8,17)"/>
</svg>
