<?xml version="1.0" encoding="UTF-8"?>
<svg version="1.1" xmlns="http://www.w3.org/2000/svg" width="32" height="32">
<path d="M0 0 C1.32 0 2.64 0 4 0 C4 0.66 4 1.32 4 2 C3.01 2.495 3.01 2.495 2 3 C2.65355469 4.10472656 3.30710937 5.20945312 3.98046875 6.34765625 C6.50291244 11.39588167 6.4949267 15.88767446 6.3125 21.4375 C6.29799805 22.80165039 6.29799805 22.80165039 6.28320312 24.19335938 C6.16919168 30.83080832 6.16919168 30.83080832 5 32 C2.70848583 32.08790975 0.41427476 32.10694038 -1.87890625 32.09765625 C-2.90889992 32.09553383 -2.90889992 32.09553383 -3.95970154 32.09336853 C-6.16067801 32.08775479 -8.36155409 32.07520007 -10.5625 32.0625 C-12.05143083 32.05748676 -13.54036324 32.05292355 -15.02929688 32.04882812 C-18.68623075 32.03778093 -22.34310558 32.02050713 -26 32 C-26.93663806 26.0289324 -27.89090483 19.86296187 -26 14 C-20.34061291 6.90977096 -9.48324498 3.23243289 -1 1 C-0.67 0.67 -0.34 0.34 0 0 Z " fill="#F1A5A2" transform="translate(26,0)"/>
<path d="M0 0 C1.32 0 2.64 0 4 0 C4 0.66 4 1.32 4 2 C3.01 2.495 3.01 2.495 2 3 C2.28875 3.53109375 2.5775 4.0621875 2.875 4.609375 C3.24625 5.31578125 3.6175 6.0221875 4 6.75 C4.556875 7.79414063 4.556875 7.79414063 5.125 8.859375 C6 11 6 11 6 15 C-4.56 15 -15.12 15 -26 15 C-22.52982683 11.52982683 -19.38279976 9.23513655 -15.1875 6.875 C-14.59646484 6.52824219 -14.00542969 6.18148438 -13.39648438 5.82421875 C-9.34236481 3.51642114 -5.50584206 2.18723567 -1 1 C-0.67 0.67 -0.34 0.34 0 0 Z " fill="#EB9692" transform="translate(26,0)"/>
<path d="M0 0 C10.56 0 21.12 0 32 0 C32 5.28 32 10.56 32 16 C31 17 31 17 28.04077148 17.11352539 C26.74727783 17.10828857 25.45378418 17.10305176 24.12109375 17.09765625 C23.09110008 17.09553383 23.09110008 17.09553383 22.04029846 17.09336853 C19.83932199 17.08775479 17.63844591 17.07520007 15.4375 17.0625 C13.94856917 17.05748676 12.45963676 17.05292355 10.97070312 17.04882812 C7.31376925 17.03778093 3.65689442 17.02050713 0 17 C0 16.01 0 15.02 0 14 C9.24 13.67 18.48 13.34 28 13 C28 10.03 28 7.06 28 4 C14.14 3.505 14.14 3.505 0 3 C0 2.01 0 1.02 0 0 Z " fill="#EBD2B6" transform="translate(0,15)"/>
<path d="M0 0 C2 1.75 2 1.75 4 4 C4 5.32 4 6.64 4 8 C-6.56 8 -17.12 8 -28 8 C-28 7.67 -28 7.34 -28 7 C-17.605 6.505 -17.605 6.505 -7 6 C-6.34 4.68 -5.68 3.36 -5 2 C-2.375 0.75 -2.375 0.75 0 0 Z " fill="#EEA49D" transform="translate(28,7)"/>
<path d="M0 0 C4.29 0 8.58 0 13 0 C11.515 1.485 11.515 1.485 10 3 C15.94 3.33 21.88 3.66 28 4 C28 4.33 28 4.66 28 5 C18.76 5 9.52 5 0 5 C0 3.35 0 1.7 0 0 Z " fill="#F1B9B5" transform="translate(0,24)"/>
<path d="M0 0 C6.27 0 12.54 0 19 0 C18.01 1.32 17.02 2.64 16 4 C13.12961948 4.29561076 10.66245255 4.37943016 7.8125 4.25 C7.06291016 4.23195313 6.31332031 4.21390625 5.54101562 4.1953125 C3.6934629 4.14824109 1.84656841 4.07649766 0 4 C0 2.68 0 1.36 0 0 Z " fill="#F2B8B7" transform="translate(0,18)"/>
<path d="M0 0 C1.3599266 0.02640634 2.71958195 0.07385351 4.078125 0.140625 C4.77550781 0.15867187 5.47289062 0.17671875 6.19140625 0.1953125 C7.90424039 0.24223946 9.61636324 0.31397895 11.328125 0.390625 C11.328125 1.710625 11.328125 3.030625 11.328125 4.390625 C5.058125 4.390625 -1.211875 4.390625 -7.671875 4.390625 C-3.671875 0.390625 -3.671875 0.390625 0 0 Z " fill="#F2AEAC" transform="translate(16.671875,23.609375)"/>
<path d="M0 0 C7.59 0 15.18 0 23 0 C20 3 20 3 17.82348633 3.34057617 C17.00130615 3.32486572 16.17912598 3.30915527 15.33203125 3.29296875 C14.43935547 3.28330078 13.54667969 3.27363281 12.62695312 3.26367188 C11.23379883 3.2259668 11.23379883 3.2259668 9.8125 3.1875 C8.87212891 3.17396484 7.93175781 3.16042969 6.96289062 3.14648438 C4.64134962 3.11113096 2.32096347 3.06178674 0 3 C0 2.01 0 1.02 0 0 Z " fill="#F0D9C1" transform="translate(0,15)"/>
<path d="M0 0 C0 0.66 0 1.32 0 2 C-0.99 2.495 -0.99 2.495 -2 3 C-1.690625 3.928125 -1.690625 3.928125 -1.375 4.875 C-1.25125 5.57625 -1.1275 6.2775 -1 7 C-1.66 7.66 -2.32 8.32 -3 9 C-5.625 8.625 -5.625 8.625 -8 8 C-7.63487253 5.2980567 -7.30130763 3.41609148 -5.6875 1.1875 C-4 0 -4 0 0 0 Z " fill="#D55A42" transform="translate(30,0)"/>
<path d="M0 0 C2.475 0.99 2.475 0.99 5 2 C4.60196439 4.88575819 4.20990931 5.82189513 1.9375 7.75 C0.9784375 8.36875 0.9784375 8.36875 0 9 C-1.32 8.34 -2.64 7.68 -4 7 C-2.92598892 4.08482708 -2.22189824 2.22189824 0 0 Z " fill="#DF8E86" transform="translate(16,4)"/>
<path d="M0 0 C0.66 0 1.32 0 2 0 C1.67 1.32 1.34 2.64 1 4 C2.32 4.33 3.64 4.66 5 5 C5 5.66 5 6.32 5 7 C2.69 7 0.38 7 -2 7 C-1.34 5.68 -0.68 4.36 0 3 C-0.66 2.67 -1.32 2.34 -2 2 C-1.34 1.34 -0.68 0.68 0 0 Z " fill="#F19B9A" transform="translate(11,7)"/>
<path d="M0 0 C1.5 1.3125 1.5 1.3125 3 3 C3 3.99 3 4.98 3 6 C1.35 6 -0.3 6 -2 6 C-1.34 4.02 -0.68 2.04 0 0 Z " fill="#F19B9A" transform="translate(29,8)"/>
<path d="M0 0 C2.31 0 4.62 0 7 0 C5.75 1.5 5.75 1.5 4 3 C2.68 3 1.36 3 0 3 C0 2.01 0 1.02 0 0 Z " fill="#EFDAC1" transform="translate(0,29)"/>
</svg>
