<?xml version="1.0" encoding="UTF-8"?>
<svg version="1.1" xmlns="http://www.w3.org/2000/svg" width="32" height="32">
<path d="M0 0 C2.97 0 5.94 0 9 0 C11.56976744 7.86046512 11.56976744 7.86046512 10 11 C7 12 7 12 4 11 C4.06445312 11.75796875 4.12890625 12.5159375 4.1953125 13.296875 C4 16 4 16 2.7421875 17.703125 C-1.74842351 21.42338015 -6.43793585 24.74490616 -11.3125 27.9375 C-11.92303223 28.33936523 -12.53356445 28.74123047 -13.16259766 29.15527344 C-17.63270541 32 -17.63270541 32 -21 32 C-20.45317251 28.22438422 -19.52239891 25.91321809 -17.19921875 22.8984375 C-16.63396484 22.16109375 -16.06871094 21.42375 -15.48632812 20.6640625 C-14.89271484 19.90867187 -14.29910156 19.15328125 -13.6875 18.375 C-13.10548828 17.611875 -12.52347656 16.84875 -11.92382812 16.0625 C-9.1946664 12.53900695 -6.76699807 9.46610577 -3 7 C-2.34 7 -1.68 7 -1 7 C-0.67 4.69 -0.34 2.38 0 0 Z " fill="#FEA71F" transform="translate(21,0)"/>
<path d="M0 0 C2.97 0 5.94 0 9 0 C11.56976744 7.86046512 11.56976744 7.86046512 10 11 C6.19825711 12.26724763 4.6488868 11.4750819 1 10 C-1 8 -1 8 -1.1875 5 C-1 2 -1 2 0 0 Z " fill="#97BA10" transform="translate(21,0)"/>
<path d="M0 0 C1.32 0 2.64 0 4 0 C3.125 5.75 3.125 5.75 2 8 C1.01 8 0.02 8 -1 8 C-1.125 2.25 -1.125 2.25 0 0 Z " fill="#79A000" transform="translate(21,0)"/>
<path d="M0 0 C-0.3125 1.9375 -0.3125 1.9375 -1 4 C-4.13349732 5.04449911 -4.98968256 4.93423645 -8 4 C-7 1 -7 1 -5.125 -0.25 C-3 -1 -3 -1 0 0 Z " fill="#79A000" transform="translate(32,7)"/>
</svg>
