<?xml version="1.0" encoding="UTF-8"?>
<svg version="1.1" xmlns="http://www.w3.org/2000/svg" width="32" height="32">
<path d="M0 0 C4.62 0 9.24 0 14 0 C14.81235475 4.06177373 15.10732417 7.23350092 15.0625 11.3125 C15.05347656 12.38113281 15.04445313 13.44976562 15.03515625 14.55078125 C15.02355469 15.35902344 15.01195313 16.16726562 15 17 C15.99 17 16.98 17 18 17 C18.66 12.38 19.32 7.76 20 3 C22.64 3 25.28 3 28 3 C29.01885997 8.84841667 29.11753524 14.51074064 29.0625 20.4375 C29.041875 23.593125 29.02125 26.74875 29 30 C19.1 30 9.2 30 -1 30 C-1.020625 25.606875 -1.04125 21.21375 -1.0625 16.6875 C-1.071604 15.30522217 -1.08070801 13.92294434 -1.09008789 12.4987793 C-1.09258545 11.40992432 -1.09508301 10.32106934 -1.09765625 9.19921875 C-1.10289307 8.08377686 -1.10812988 6.96833496 -1.11352539 5.8190918 C-1 3 -1 3 0 0 Z M1 1 C1 1.33 1 1.66 1 2 C4.63 2 8.26 2 12 2 C12 1.67 12 1.34 12 1 C8.37 1 4.74 1 1 1 Z " fill="#716A42" transform="translate(2,1)"/>
<path d="M0 0 C1.65322266 0.01740234 1.65322266 0.01740234 3.33984375 0.03515625 C4.99693359 0.04869141 4.99693359 0.04869141 6.6875 0.0625 C7.54214844 0.07410156 8.39679687 0.08570313 9.27734375 0.09765625 C10.6107623 7.64833959 9.85543163 12.8790102 7.27734375 20.09765625 C3.64734375 20.09765625 0.01734375 20.09765625 -3.72265625 20.09765625 C-3.74949322 16.95176681 -3.76941527 13.80610354 -3.78515625 10.66015625 C-3.79353516 9.76232422 -3.80191406 8.86449219 -3.81054688 7.93945312 C-3.81376953 7.08544922 -3.81699219 6.23144531 -3.8203125 5.3515625 C-3.82816772 4.16542358 -3.82816772 4.16542358 -3.83618164 2.95532227 C-3.6507385 -0.07916552 -3.06063292 0.1097788 0 0 Z " fill="#3D8ECD" transform="translate(5.72265625,3.90234375)"/>
<path d="M0 0 C4.62 0 9.24 0 14 0 C14.81235475 4.06177373 15.10732417 7.23350092 15.0625 11.3125 C15.05347656 12.38113281 15.04445313 13.44976562 15.03515625 14.55078125 C15.02355469 15.35902344 15.01195313 16.16726562 15 17 C15.99 17 16.98 17 18 17 C18.66 12.38 19.32 7.76 20 3 C22.64 3 25.28 3 28 3 C29.01885997 8.84841667 29.11753524 14.51074064 29.0625 20.4375 C29.041875 23.593125 29.02125 26.74875 29 30 C19.1 30 9.2 30 -1 30 C-1.020625 25.606875 -1.04125 21.21375 -1.0625 16.6875 C-1.071604 15.30522217 -1.08070801 13.92294434 -1.09008789 12.4987793 C-1.09258545 11.40992432 -1.09508301 10.32106934 -1.09765625 9.19921875 C-1.10289307 8.08377686 -1.10812988 6.96833496 -1.11352539 5.8190918 C-1 3 -1 3 0 0 Z M1 1 C1 1.33 1 1.66 1 2 C4.63 2 8.26 2 12 2 C12 1.67 12 1.34 12 1 C8.37 1 4.74 1 1 1 Z M0 4 C-0.08737645 5.85369611 -0.10698153 7.71067541 -0.09765625 9.56640625 C-0.09515869 10.57904541 -0.09266113 11.59168457 -0.09008789 12.63500977 C-0.08098389 13.93108154 -0.07187988 15.22715332 -0.0625 16.5625 C-0.041875 20.666875 -0.02125 24.77125 0 29 C9.24 29 18.48 29 28 29 C28 24.38 28 19.76 28 15 C25.36 15 22.72 15 20 15 C20 16.32 20 17.64 20 19 C17.03 18.505 17.03 18.505 14 18 C14.01160156 17.25234375 14.02320313 16.5046875 14.03515625 15.734375 C14.04417969 14.74953125 14.05320312 13.7646875 14.0625 12.75 C14.07410156 11.77546875 14.08570313 10.8009375 14.09765625 9.796875 C14.01195577 7.34241322 13.70706066 5.33831086 13 3 C11.02090602 2.97313447 9.04171029 2.95366625 7.0625 2.9375 C5.40927734 2.92009766 5.40927734 2.92009766 3.72265625 2.90234375 C1.08552366 2.68737429 1.08552366 2.68737429 0 4 Z " fill="#011D39" transform="translate(2,1)"/>
<path d="M0 0 C0.24059853 4.21047434 -0.316011 5.7900275 -2 10 C-5.63 10 -9.26 10 -13 10 C-13 7.03 -13 4.06 -13 1 C-11.02087544 0.83283412 -9.04169915 0.66628044 -7.0625 0.5 C-5.40927734 0.36078125 -5.40927734 0.36078125 -3.72265625 0.21875 C-1 0 -1 0 0 0 Z " fill="#B5C1CF" transform="translate(15,14)"/>
<path d="M0 0 C2.64 0 5.28 0 8 0 C8 4.62 8 9.24 8 14 C6.68 14 5.36 14 4 14 C3.67 12.02 3.34 10.04 3 8 C0.03 7.505 0.03 7.505 -3 7 C-2.34 6.01 -1.68 5.02 -1 4 C-0.36707617 1.88719655 -0.36707617 1.88719655 0 0 Z " fill="#424E3D" transform="translate(22,16)"/>
<path d="M0 0 C3.96 0 7.92 0 12 0 C12 2.31 12 4.62 12 7 C8.04 7 4.08 7 0 7 C0 5 0 5 1.5 3.375 C1.995 2.92125 2.49 2.4675 3 2 C2.01 2 1.02 2 0 2 C0 1.34 0 0.68 0 0 Z " fill="#DFC22E" transform="translate(14,23)"/>
<path d="M0 0 C3.63 0 7.26 0 11 0 C11 1.65 11 3.3 11 5 C7.37 5 3.74 5 0 5 C0 3.35 0 1.7 0 0 Z " fill="#38A3F4" transform="translate(2,25)"/>
<path d="M0 0 C1.32 0 2.64 0 4 0 C5.25664978 2.90600261 6 4.79604584 6 8 C3.36 8 0.72 8 -2 8 C-1.47731534 5.23723823 -0.89130413 2.6739124 0 0 Z " fill="#D2D5DD" transform="translate(24,7)"/>
<path d="M0 0 C2.31 0.33 4.62 0.66 7 1 C7 1.66 7 2.32 7 3 C5.35 3 3.7 3 2 3 C1.855625 3.763125 1.71125 4.52625 1.5625 5.3125 C1 8 1 8 0 11 C2.64 11 5.28 11 8 11 C8 11.33 8 11.66 8 12 C5.36 12 2.72 12 0 12 C0 13.32 0 14.64 0 16 C-2.97 15.505 -2.97 15.505 -6 15 C-4.68 14.67 -3.36 14.34 -2 14 C-1.34 9.38 -0.68 4.76 0 0 Z " fill="#144268" transform="translate(22,4)"/>
<path d="M0 0 C2.64 0 5.28 0 8 0 C8 1.65 8 3.3 8 5 C2.25 5.125 2.25 5.125 0 4 C0 2.68 0 1.36 0 0 Z " fill="#39A5F8" transform="translate(22,16)"/>
<path d="M0 0 C3.96 0 7.92 0 12 0 C12 0.99 12 1.98 12 3 C8.04 3 4.08 3 0 3 C0 2.01 0 1.02 0 0 Z " fill="#D4D7DF" transform="translate(3,4)"/>
<path d="M0 0 C0 1.65 0 3.3 0 5 C-1.98 5.99 -1.98 5.99 -4 7 C-4.33 5.02 -4.66 3.04 -5 1 C-1.125 0 -1.125 0 0 0 Z " fill="#E7E8EF" transform="translate(15,14)"/>
<path d="M0 0 C0.99 0 1.98 0 3 0 C3 2.64 3 5.28 3 8 C2.01 8 1.02 8 0 8 C0 5.36 0 2.72 0 0 Z " fill="#CCCFD8" transform="translate(27,22)"/>
</svg>
