<?xml version="1.0" encoding="UTF-8"?>
<svg version="1.1" xmlns="http://www.w3.org/2000/svg" width="32" height="32">
<path d="M0 0 C6.27731285 2.22879872 9.11346555 9.40405936 12 15 C13.4543119 19.1811467 13.32843813 22.08383048 11.8125 26.3125 C9.99720957 29.00413753 8.73118576 30.30880312 6 32 C1.22846462 32.86120395 -2.79427124 32.70334178 -7 30.25 C-10.05418584 26.81404093 -10.96251815 24.77462488 -11.1875 20.125 C-10.29089901 13.1617871 -4.92657967 4.92657967 0 0 Z " fill="#84DAFF" transform="translate(15,0)"/>
<path d="M0 0 C0.66 0 1.32 0 2 0 C2.226875 0.78375 2.45375 1.5675 2.6875 2.375 C3.78125 5.21875 3.78125 5.21875 6.625 6.3125 C7.40875 6.539375 8.1925 6.76625 9 7 C9 7.66 9 8.32 9 9 C3.53164557 8.51392405 3.53164557 8.51392405 1.125 6.1875 C0 4 0 4 0 0 Z " fill="#EEFAFF" transform="translate(8,20)"/>
</svg>
