<?xml version="1.0" encoding="UTF-8"?>
<svg version="1.1" xmlns="http://www.w3.org/2000/svg" width="32" height="32">
<path d="M0 0 C-0.33 4.62 -0.66 9.24 -1 14 C-1.99 14.33 -2.98 14.66 -4 15 C-4.28359375 15.88945312 -4.5671875 16.77890625 -4.859375 17.6953125 C-6.21763121 21.63053426 -8.35071951 24.01458386 -11.25 26.875 C-11.94802734 27.62136719 -11.94802734 27.62136719 -12.66015625 28.3828125 C-15.05933173 30.78859728 -16.69487456 31.94225247 -20.0546875 32.578125 C-23.77220426 31.84842675 -25.2371133 30.56617734 -27.875 27.875 C-28.65617187 27.10929687 -29.43734375 26.34359375 -30.2421875 25.5546875 C-32.40102448 22.41717776 -32.52131599 20.73609793 -32 17 C-29.75 14.4375 -29.75 14.4375 -27 12 C-26.360625 11.13375 -25.72125 10.2675 -25.0625 9.375 C-22.64003952 6.58550005 -20.3934912 5.40165941 -17 4 C-16.34 4 -15.68 4 -15 4 C-14.67 3.01 -14.34 2.02 -14 1 C-12.60459859 0.82975495 -11.20865091 0.6639851 -9.8125 0.5 C-9.03519531 0.4071875 -8.25789063 0.314375 -7.45703125 0.21875 C-4.98008214 -0.00177329 -2.48674635 0 0 0 Z " fill="#292E2D" transform="translate(32,0)"/>
<path d="M0 0 C2.375 0.8125 2.375 0.8125 4.375 2.8125 C4.8390625 4.545 4.8390625 4.545 5.3125 6.3125 C6.0423234 10.04935745 6.0423234 10.04935745 9.375 11.8125 C8.715 13.1325 8.055 14.4525 7.375 15.8125 C6.715 15.8125 6.055 15.8125 5.375 15.8125 C5.045 16.8025 4.715 17.7925 4.375 18.8125 C3.385 18.8125 2.395 18.8125 1.375 18.8125 C1.375 19.8025 1.375 20.7925 1.375 21.8125 C-2.63768958 21.26825015 -4.60916846 19.29177799 -7.4375 16.5 C-8.24832031 15.72011719 -9.05914063 14.94023437 -9.89453125 14.13671875 C-11.625 11.8125 -11.625 11.8125 -11.5 9.6796875 C-9.30844383 5.00306317 -5.55222802 -0.39658772 0 0 Z " fill="#F4F4F4" transform="translate(12.625,9.1875)"/>
<path d="M0 0 C0.66 0.33 1.32 0.66 2 1 C1.154375 1.7425 0.30875 2.485 -0.5625 3.25 C-3.2410777 5.62632173 -3.2410777 5.62632173 -2.90625 7.90625 C-1.72324472 10.63940014 -0.08846602 12.20146094 2.0625 14.25 C2.79597656 14.95640625 3.52945312 15.6628125 4.28515625 16.390625 C5.13400391 17.18726563 5.13400391 17.18726563 6 18 C6.99 17.67 7.98 17.34 9 17 C8.34 16.01 7.68 15.02 7 14 C7.721875 14.268125 8.44375 14.53625 9.1875 14.8125 C12.21669819 15.33141278 12.21669819 15.33141278 14.75 12.8125 C16.78880284 10.26399645 17.56976326 9.11921639 18 6 C18.33 5.34 18.66 4.68 19 4 C19.66 4.33 20.32 4.66 21 5 C21.33 4.01 21.66 3.02 22 2 C24.0625 0.8125 24.0625 0.8125 26 0 C25.67 0.99 25.34 1.98 25 3 C24.34 3 23.68 3 23 3 C22.66742187 4.30324219 22.66742187 4.30324219 22.328125 5.6328125 C20.7996807 9.50786834 18.66169366 12.00233709 15.75 14.875 C15.05197266 15.62136719 15.05197266 15.62136719 14.33984375 16.3828125 C11.94066827 18.78859728 10.30512544 19.94225247 6.9453125 20.578125 C3.22779574 19.84842675 1.7628867 18.56617734 -0.875 15.875 C-1.65617188 15.10929687 -2.43734375 14.34359375 -3.2421875 13.5546875 C-5.40617643 10.40969026 -5.53940701 8.74531657 -5 5 C-2.5 2.125 -2.5 2.125 0 0 Z " fill="#0F1212" transform="translate(5,12)"/>
<path d="M0 0 C4.46689677 0.77685161 7.30082288 3.85015808 9.875 7.5 C9.875 8.82 9.875 10.14 9.875 11.5 C8.885 11.995 8.885 11.995 7.875 12.5 C7.875 13.16 7.875 13.82 7.875 14.5 C6 14.1875 6 14.1875 3.875 13.5 C1.875 10.5 1.875 10.5 0.9375 7.5 C-0.07896265 4.62998783 -0.81657276 3.38871319 -3.125 1.5 C-2.125 0.5 -2.125 0.5 0 0 Z " fill="#90DDEB" transform="translate(16.125,5.5)"/>
<path d="M0 0 C0.66 0.66 1.32 1.32 2 2 C1.67 2.99 1.34 3.98 1 5 C1.27571139 7.00875442 1.60235737 9.01178687 2 11 C0.265625 11.73828125 0.265625 11.73828125 -2 12 C-4.140625 10.41796875 -4.140625 10.41796875 -6.25 8.1875 C-6.95640625 7.45917969 -7.6628125 6.73085937 -8.390625 5.98046875 C-10 4 -10 4 -10 2 C-9.04287109 1.90912109 -9.04287109 1.90912109 -8.06640625 1.81640625 C-6.82697266 1.69072266 -6.82697266 1.69072266 -5.5625 1.5625 C-4.73878906 1.48128906 -3.91507813 1.40007813 -3.06640625 1.31640625 C-1.01337975 1.21069185 -1.01337975 1.21069185 0 0 Z " fill="#363126" transform="translate(29,1)"/>
<path d="M0 0 C0.66 0.33 1.32 0.66 2 1 C1.154375 1.7425 0.30875 2.485 -0.5625 3.25 C-3.24181784 5.62728896 -3.24181784 5.62728896 -2.90625 7.9140625 C-1.72702042 10.62832369 -0.10106185 12.11788619 2.0625 14.125 C3.40998507 15.38012669 4.73152782 16.66507028 6 18 C6 18.66 6 19.32 6 20 C1.41321679 17.92985891 -1.93570895 14.98024761 -5 11 C-5.75 7.875 -5.75 7.875 -5 5 C-2.5 2.125 -2.5 2.125 0 0 Z " fill="#232323" transform="translate(5,12)"/>
<path d="M0 0 C-0.33 2.64 -0.66 5.28 -1 8 C-3 4.25 -3 4.25 -3 2 C-3.33 2.33 -3.66 2.66 -4 3 C-6.33297433 3.04092937 -8.66705225 3.04241723 -11 3 C-11 2.34 -11 1.68 -11 1 C-7.27569643 0.30710631 -3.78916254 -0.11144596 0 0 Z " fill="#151008" transform="translate(32,0)"/>
<path d="M0 0 C4.13639336 1.59092052 7.23213248 4.60474918 10 8 C10 8.66 10 9.32 10 10 C5.86360664 8.40907948 2.76786752 5.39525082 0 2 C0 1.34 0 0.68 0 0 Z " fill="#F7ECD3" transform="translate(19,3)"/>
<path d="M0 0 C0.66 0.66 1.32 1.32 2 2 C1.34 3.98 0.68 5.96 0 8 C-2.02054804 6.35830472 -4.02043058 4.69088222 -6 3 C-6 2.67 -6 2.34 -6 2 C-4.02 1.34 -2.04 0.68 0 0 Z " fill="#EDBE61" transform="translate(29,1)"/>
<path d="M0 0 C0.33 0.99 0.66 1.98 1 3 C-0.45449401 4.0055761 -1.91372443 5.00430435 -3.375 6 C-4.59316406 6.8353125 -4.59316406 6.8353125 -5.8359375 7.6875 C-8 9 -8 9 -10 9 C-8.89184175 5.78634109 -8.01470446 5.0085776 -5 3.25 C-2 2 -2 2 0 2 C0 1.34 0 0.68 0 0 Z " fill="#040505" transform="translate(17,2)"/>
</svg>
