<?xml version="1.0" encoding="UTF-8"?>
<svg version="1.1" xmlns="http://www.w3.org/2000/svg" width="32" height="32">
<path d="M0 0 C10.97850325 -0.71469461 10.97850325 -0.71469461 16.09765625 2.77734375 C20.11167869 5.35719801 24.64263126 7.07739969 29 9 C28.0409375 10.0828125 28.0409375 10.0828125 27.0625 11.1875 C25.01326465 13.98191184 24.38667054 15.61663274 24 19 C24.94875 19.309375 25.8975 19.61875 26.875 19.9375 C30 21 30 21 32 22 C30.40907948 26.13639336 27.39525082 29.23213248 24 32 C23.34 32 22.68 32 22 32 C19 26.25 19 26.25 19 24 C15.04912191 25.16730489 12.21574716 26.44837454 9 29 C8.68546875 28.27554687 8.3709375 27.55109375 8.046875 26.8046875 C5.36791892 20.64421765 5.36791892 20.64421765 1.6875 15.0625 C-0.9588349 10.25989222 -0.31265096 5.36717484 0 0 Z " fill="#8EBDFD" transform="translate(0,0)"/>
<path d="M0 0 C5.77418868 -0.41825109 10.07522722 -0.56748583 15.0625 2.77734375 C19.10839101 5.33049675 23.63040635 7.07200569 28 9 C27.360625 9.639375 26.72125 10.27875 26.0625 10.9375 C23.38087365 14.91930882 23.20501996 18.294792 23 23 C19.78475695 21.59155282 17.67816132 19.89655214 15.25 17.375 C14.63640625 16.74335938 14.0228125 16.11171875 13.390625 15.4609375 C12.93171875 14.97882812 12.4728125 14.49671875 12 14 C13 12 14 10 15 8 C14.5875 8.515625 14.175 9.03125 13.75 9.5625 C12 11 12 11 10.1875 11 C5.90240855 9.04110105 2.70100749 6.43387895 0.625 2.1875 C0.41875 1.465625 0.2125 0.74375 0 0 Z " fill="#7D87E9" transform="translate(1,0)"/>
<path d="M0 0 C1.62490954 -0.02698189 3.24994633 -0.04638757 4.875 -0.0625 C5.77992188 -0.07410156 6.68484375 -0.08570313 7.6171875 -0.09765625 C10 -0 10 -0 12 1 C11.46930939 4.82097239 10.50298434 7.06171403 8 10 C1.42857143 5 1.42857143 5 0 0 Z " fill="#86B6F5" transform="translate(1,0)"/>
<path d="M0 0 C0.556875 0.721875 1.11375 1.44375 1.6875 2.1875 C3.97909334 4.97457299 6.41459857 7.48641528 9 10 C6.75 11.5625 6.75 11.5625 4 13 C2.68 12.67 1.36 12.34 0 12 C0 8.04 0 4.08 0 0 Z " fill="#B1D7F4" transform="translate(0,0)"/>
<path d="M0 0 C5.75 1.875 5.75 1.875 8 3 C6.63016497 6.16115776 6.0109362 6.9927092 3 9 C1.5 7.875 1.5 7.875 0 6 C-0.1875 2.8125 -0.1875 2.8125 0 0 Z " fill="#8DBDFE" transform="translate(24,19)"/>
<path d="M0 0 C4.55384615 -0.36923077 4.55384615 -0.36923077 6.8125 1.5 C7.204375 1.995 7.59625 2.49 8 3 C7.1875 4.9375 7.1875 4.9375 6 7 C5.01 7.33 4.02 7.66 3 8 C0 2.25 0 2.25 0 0 Z " fill="#B2D7F3" transform="translate(19,24)"/>
<path d="M0 0 C4.455 1.98 4.455 1.98 9 4 C7.35 5.98 5.7 7.96 4 10 C3.34 9.67 2.68 9.34 2 9 C1.09408602 6.04179941 0.59941604 3.03989563 0 0 Z " fill="#B1D6F4" transform="translate(6,19)"/>
<path d="M0 0 C4.21912747 0.4794463 6.79663178 1.16625119 10 4 C7.03 6.475 7.03 6.475 4 9 C2.68 6.03 1.36 3.06 0 0 Z " fill="#B0D4F3" transform="translate(19,6)"/>
</svg>
