<?xml version="1.0" encoding="UTF-8"?>
<svg version="1.1" xmlns="http://www.w3.org/2000/svg" width="32" height="32">
<path d="M0 0 C3.3 0 6.6 0 10 0 C10 1.32 10 2.64 10 4 C7.69 4 5.38 4 3 4 C3 4.66 3 5.32 3 6 C5.31 6 7.62 6 10 6 C9.125 13.625 9.125 13.625 8 17 C8.72574219 16.88011719 9.45148437 16.76023437 10.19921875 16.63671875 C13 17 13 17 15.45703125 19.51953125 C16.25890111 20.60503772 17.04365033 21.7033608 17.8125 22.8125 C18.42254883 23.63331055 18.42254883 23.63331055 19.04492188 24.47070312 C21.00833848 27.19308749 22 28.57224285 22 32 C13.75 32 5.5 32 -3 32 C-3 31.34 -3 30.68 -3 30 C-4.32 29.67 -5.64 29.34 -7 29 C-7.50509639 25.91747911 -8.00317999 22.83386475 -8.5 19.75 C-8.64308594 18.87730469 -8.78617188 18.00460938 -8.93359375 17.10546875 C-9.06894531 16.26113281 -9.20429688 15.41679687 -9.34375 14.546875 C-9.46943359 13.77182617 -9.59511719 12.99677734 -9.72460938 12.19824219 C-10 10 -10 10 -10 6 C-7.36 5.67 -4.72 5.34 -2 5 C-1.34 3.35 -0.68 1.7 0 0 Z " fill="#82654D" transform="translate(10,0)"/>
<path d="M0 0 C2.05078125 0.03255208 4.1015625 0.06510417 6.15234375 0.09765625 C6.15234375 0.75765625 6.15234375 1.41765625 6.15234375 2.09765625 C3.51234375 2.09765625 0.87234375 2.09765625 -1.84765625 2.09765625 C-1.84765625 3.41765625 -1.84765625 4.73765625 -1.84765625 6.09765625 C0.79234375 6.09765625 3.43234375 6.09765625 6.15234375 6.09765625 C5.49234375 9.39765625 4.83234375 12.69765625 4.15234375 16.09765625 C1.81901042 16.09765625 -0.51432292 16.09765625 -2.84765625 16.09765625 C-2.51765625 17.08765625 -2.18765625 18.07765625 -1.84765625 19.09765625 C-1.18765625 19.42765625 -0.52765625 19.75765625 0.15234375 20.09765625 C-0.83765625 22.57265625 -0.83765625 22.57265625 -1.84765625 25.09765625 C-3.84765625 22.09765625 -3.84765625 22.09765625 -4.84765625 19.09765625 C-5.50765625 19.42765625 -6.16765625 19.75765625 -6.84765625 20.09765625 C-6.99914923 23.72650949 -6.99914923 23.72650949 -5.84765625 27.09765625 C-6.83765625 27.09765625 -7.82765625 27.09765625 -8.84765625 27.09765625 C-8.92113281 25.82921875 -8.92113281 25.82921875 -8.99609375 24.53515625 C-9.41689639 18.1505644 -10.04116388 12.2397303 -11.84765625 6.09765625 C-8.87765625 6.09765625 -5.90765625 6.09765625 -2.84765625 6.09765625 C-2.86828125 5.29328125 -2.88890625 4.48890625 -2.91015625 3.66015625 C-2.82452531 0.14928781 -2.82452531 0.14928781 0 0 Z " fill="#8B908E" transform="translate(12.84765625,0.90234375)"/>
<path d="M0 0 C3.3 0 6.6 0 10 0 C10 1.32 10 2.64 10 4 C7.69 4 5.38 4 3 4 C3 4.66 3 5.32 3 6 C5.31 6 7.62 6 10 6 C9.125 13.625 9.125 13.625 8 17 C8.72574219 16.88011719 9.45148437 16.76023437 10.19921875 16.63671875 C13 17 13 17 15.45703125 19.51953125 C16.25890111 20.60503772 17.04365033 21.7033608 17.8125 22.8125 C18.42254883 23.63331055 18.42254883 23.63331055 19.04492188 24.47070312 C21.00833848 27.19308749 22 28.57224285 22 32 C13.75 32 5.5 32 -3 32 C-3 31.34 -3 30.68 -3 30 C-4.32 29.67 -5.64 29.34 -7 29 C-7.50509639 25.91747911 -8.00317999 22.83386475 -8.5 19.75 C-8.64308594 18.87730469 -8.78617188 18.00460938 -8.93359375 17.10546875 C-9.06894531 16.26113281 -9.20429688 15.41679687 -9.34375 14.546875 C-9.46943359 13.77182617 -9.59511719 12.99677734 -9.72460938 12.19824219 C-10 10 -10 10 -10 6 C-7.36 5.67 -4.72 5.34 -2 5 C-1.34 3.35 -0.68 1.7 0 0 Z M0 2 C-0.04063832 3.66617115 -0.042721 5.33388095 0 7 C-2.97 7 -5.94 7 -9 7 C-8.690625 8.051875 -8.38125 9.10375 -8.0625 10.1875 C-6.57796206 16.03089403 -6.34748289 22.00134801 -6 28 C-5.195625 28.12375 -4.39125 28.2475 -3.5625 28.375 C-2.2940625 28.684375 -2.2940625 28.684375 -1 29 C-0.67 29.66 -0.34 30.32 0 31 C0.639375 30.814375 1.27875 30.62875 1.9375 30.4375 C2.618125 30.293125 3.29875 30.14875 4 30 C4.33 30.33 4.66 30.66 5 31 C7.53049402 31.07313567 10.03304837 31.09247527 12.5625 31.0625 C13.27341797 31.05798828 13.98433594 31.05347656 14.71679688 31.04882812 C16.47790013 31.03700864 18.23896036 31.01907263 20 31 C18.29195562 26.49697391 16.43084554 22.44944091 13 19 C9.83000856 17.95382909 9.83000856 17.95382909 7 18 C7.66 14.37 8.32 10.74 9 7 C6.36 7 3.72 7 1 7 C1 5.68 1 4.36 1 3 C3.64 3 6.28 3 9 3 C9 2.34 9 1.68 9 1 C4.20029258 0.47166284 4.20029258 0.47166284 0 2 Z " fill="#010101" transform="translate(10,0)"/>
<path d="M0 0 C3.25548753 3.02295271 5.68977058 6.20462309 8 10 C8 10.66 8 11.32 8 12 C3.05 12 -1.9 12 -7 12 C-5.05372161 7.13430402 -3.07915761 4.13255363 0 0 Z " fill="#E1B895" transform="translate(22,19)"/>
<path d="M0 0 C3.81706966 3.5989514 7.42998892 7.38491627 10 12 C10 12.99 10 13.98 10 15 C1.75 15 -6.5 15 -15 15 C-15 14.34 -15 13.68 -15 13 C-16.32 12.67 -17.64 12.34 -19 12 C-19 9.69 -19 7.38 -19 5 C-18.67 5 -18.34 5 -18 5 C-17.938125 5.94875 -17.87625 6.8975 -17.8125 7.875 C-17.34151958 11.14094721 -17.34151958 11.14094721 -14.75 12.4375 C-11.78247084 13.0444946 -9.89074433 12.82592695 -7 12 C-7 12.66 -7 13.32 -7 14 C-2.05 14 2.9 14 8 14 C6.329375 11.2775 6.329375 11.2775 4.625 8.5 C3.68527344 6.96859375 3.68527344 6.96859375 2.7265625 5.40625 C2.15679688 4.6121875 1.58703125 3.818125 1 3 C0.34 3 -0.32 3 -1 3 C-0.67 2.01 -0.34 1.02 0 0 Z " fill="#090806" transform="translate(22,17)"/>
<path d="M0 0 C-0.33 1.65 -0.66 3.3 -1 5 C-3.97 4.505 -3.97 4.505 -7 4 C-6.67 4.99 -6.34 5.98 -6 7 C-5.34 7.33 -4.68 7.66 -4 8 C-4.66 9.65 -5.32 11.3 -6 13 C-8 10 -8 10 -9 7 C-9.99 7.495 -9.99 7.495 -11 8 C-11.15149298 11.62885324 -11.15149298 11.62885324 -10 15 C-10.99 15 -11.98 15 -13 15 C-13 11.04 -13 7.08 -13 3 C-4.57142857 -0.42857143 -4.57142857 -0.42857143 0 0 Z " fill="#61C7E3" transform="translate(17,13)"/>
<path d="M0 0 C2.05078125 0.03255208 4.1015625 0.06510417 6.15234375 0.09765625 C6.15234375 0.75765625 6.15234375 1.41765625 6.15234375 2.09765625 C3.51234375 2.09765625 0.87234375 2.09765625 -1.84765625 2.09765625 C-1.84765625 3.41765625 -1.84765625 4.73765625 -1.84765625 6.09765625 C0.79234375 6.09765625 3.43234375 6.09765625 6.15234375 6.09765625 C5.49234375 8.07765625 4.83234375 10.05765625 4.15234375 12.09765625 C2.50234375 12.09765625 0.85234375 12.09765625 -0.84765625 12.09765625 C-0.18765625 11.43765625 0.47234375 10.77765625 1.15234375 10.09765625 C2.14234375 10.09765625 3.13234375 10.09765625 4.15234375 10.09765625 C4.15234375 9.43765625 4.15234375 8.77765625 4.15234375 8.09765625 C-0.46765625 8.09765625 -5.08765625 8.09765625 -9.84765625 8.09765625 C-10.17765625 9.08765625 -10.50765625 10.07765625 -10.84765625 11.09765625 C-11.17765625 9.44765625 -11.50765625 7.79765625 -11.84765625 6.09765625 C-8.87765625 6.09765625 -5.90765625 6.09765625 -2.84765625 6.09765625 C-2.86828125 5.29328125 -2.88890625 4.48890625 -2.91015625 3.66015625 C-2.82452531 0.14928781 -2.82452531 0.14928781 0 0 Z " fill="#66665E" transform="translate(12.84765625,0.90234375)"/>
<path d="M0 0 C4.05606165 0.46800711 7.46588679 0.87953208 11 3 C9 5 9 5 7 7 C6.484375 7.5775 5.96875 8.155 5.4375 8.75 C4 10 4 10 1 10 C1.66 8.35 2.32 6.7 3 5 C1.68 4.34 0.36 3.68 -1 3 C-0.67 2.01 -0.34 1.02 0 0 Z " fill="#544536" transform="translate(10,16)"/>
<path d="M0 0 C2.31 0 4.62 0 7 0 C7.66 1.65 8.32 3.3 9 5 C4.05 5 -0.9 5 -6 5 C-6 4.67 -6 4.34 -6 4 C-4.02 4 -2.04 4 0 4 C0 2.68 0 1.36 0 0 Z " fill="#A3856B" transform="translate(21,26)"/>
<path d="M0 0 C3 2 3 2 3.75 5.5625 C3.8325 6.696875 3.915 7.83125 4 9 C3 10 3 10 0.4375 10.0625 C-0.366875 10.041875 -1.17125 10.02125 -2 10 C-2 9.01 -2 8.02 -2 7 C-2.04125 6.154375 -2.0825 5.30875 -2.125 4.4375 C-2 2 -2 2 0 0 Z " fill="#2D5C6A" transform="translate(7,19)"/>
<path d="M0 0 C-3.06117568 2.62386487 -3.73173127 3 -8 3 C-8 4.98 -8 6.96 -8 9 C-8.33 9 -8.66 9 -9 9 C-9 6.03 -9 3.06 -9 0 C-5.62182575 -0.84454356 -3.32534757 -1.10844919 0 0 Z " fill="#316574" transform="translate(12,13)"/>
<path d="M0 0 C1.65 0.33 3.3 0.66 5 1 C5 1.99 5 2.98 5 4 C4.34 4.66 3.68 5.32 3 6 C1.68 5.01 0.36 4.02 -1 3 C-0.67 2.01 -0.34 1.02 0 0 Z " fill="#326E80" transform="translate(10,16)"/>
<path d="M0 0 C0.66 0 1.32 0 2 0 C1.52797514 4.24822374 -0.96655518 6.19989709 -4 9 C-4 4.9666466 -2.39120082 3.16482462 0 0 Z " fill="#92755C" transform="translate(19,19)"/>
<path d="M0 0 C0.99 0.66 1.98 1.32 3 2 C2.67 2.99 2.34 3.98 2 5 C1.01 5 0.02 5 -1 5 C-1.33 5.66 -1.66 6.32 -2 7 C-2.125 4.625 -2.125 4.625 -2 2 C-1.34 1.34 -0.68 0.68 0 0 Z " fill="#214D5C" transform="translate(7,19)"/>
</svg>
