<?xml version="1.0" encoding="UTF-8"?>
<svg version="1.1" xmlns="http://www.w3.org/2000/svg" width="32" height="32">
<path d="M0 0 C0.99 0 1.98 0 3 0 C5.68421596 5.36843192 5.45860009 10.56941953 4.375 16.3125 C3.66608797 19.21885944 3.66608797 19.21885944 6 22 C6.53748871 28.01987353 6.53748871 28.01987353 4.9375 30.9375 C1.88023824 32.6140629 -0.5906288 32.36528977 -4 32 C-5.9375 30.625 -5.9375 30.625 -7 29 C-7 28.34 -7 27.68 -7 27 C-10.14191424 28.53604696 -13.08596738 30.05731159 -16 32 C-22.10206897 31.78206897 -22.10206897 31.78206897 -24.9375 29.3125 C-26.3174949 26.30898169 -26.41747718 24.27023793 -26 21 C-25.0206121 19.97980427 -24.02104551 18.97850195 -23 18 C-22.74930087 15.37429296 -22.74930087 15.37429296 -23 13 C-22.0925 13.37125 -21.185 13.7425 -20.25 14.125 C-17.11902985 15.30359299 -17.11902985 15.30359299 -14.625 14.125 C-14.08875 13.75375 -13.5525 13.3825 -13 13 C-12.67 13.66 -12.34 14.32 -12 15 C-12.99 15.66 -13.98 16.32 -15 17 C-10.98988232 17.42287774 -10.98988232 17.42287774 -8.5625 15 C-4.7030576 10.48162841 -1.2105219 5.90787321 0 0 Z " fill="#EBCE5B" transform="translate(26,0)"/>
<path d="M0 0 C0.9075 0.37125 1.815 0.7425 2.75 1.125 C5.88097015 2.30359299 5.88097015 2.30359299 8.375 1.125 C8.91125 0.75375 9.4475 0.3825 10 0 C10.33 0.66 10.66 1.32 11 2 C10.01 2.66 9.02 3.32 8 4 C8.680625 4.495 9.36125 4.99 10.0625 5.5 C12.19896649 8.25673096 12.2860153 8.75811048 12 12.0625 C11.4923444 14.73018039 11.0848237 15.89233915 9.375 18.0625 C5.88244082 19.44114178 3.5821959 18.97696252 0 18 C-2.62581536 15.71299952 -2.95141434 14.39678293 -3.375 10.9375 C-2.94638055 7.57998097 -2.32396859 7.22713657 0 5 C0.25069913 2.37429296 0.25069913 2.37429296 0 0 Z " fill="#F65464" transform="translate(3,13)"/>
<path d="M0 0 C5.75 1.75 5.75 1.75 8 4 C8.54587156 10.00458716 8.54587156 10.00458716 6.9375 12.9375 C3.88023824 14.6140629 1.4093712 14.36528977 -2 14 C-3.9375 12.625 -3.9375 12.625 -5 11 C-5 10.34 -5 9.68 -5 9 C-6.65 9.33 -8.3 9.66 -10 10 C-8.65790834 5.97372501 -6.51298199 5.24830847 -3 3 C-1.20605554 1.37648891 -1.20605554 1.37648891 0 0 Z " fill="#FC9A3D" transform="translate(24,18)"/>
<path d="M0 0 C2.625 0.375 2.625 0.375 5 1 C4.67 2.32 4.34 3.64 4 5 C4.99 5.33 5.98 5.66 7 6 C7.33 6.99 7.66 7.98 8 9 C6.25 11 6.25 11 4 13 C2.68 13 1.36 13 0 13 C0.33 11.02 0.66 9.04 1 7 C0.01 7 -0.98 7 -2 7 C-2.125 4.625 -2.125 4.625 -2 2 C-1.34 1.34 -0.68 0.68 0 0 Z " fill="#BF6460" transform="translate(14,0)"/>
<path d="M0 0 C0.99 0 1.98 0 3 0 C5.2647694 4.52953881 5.31552523 8.03047769 5 13 C4 15.5 4 15.5 3 17 C2.34 16.67 1.68 16.34 1 16 C1.01160156 15.26394531 1.02320312 14.52789062 1.03515625 13.76953125 C1.04417969 12.79371094 1.05320312 11.81789063 1.0625 10.8125 C1.07410156 9.84957031 1.08570312 8.88664063 1.09765625 7.89453125 C1.00486622 5.14423487 0.62111685 2.67520409 0 0 Z " fill="#FFB747" transform="translate(26,0)"/>
<path d="M0 0 C2.625 0.375 2.625 0.375 5 1 C5.042721 2.66611905 5.04063832 4.33382885 5 6 C4 7 4 7 1.4375 7.0625 C0.2309375 7.0315625 0.2309375 7.0315625 -1 7 C-1.625 4.625 -1.625 4.625 -2 2 C-1.34 1.34 -0.68 0.68 0 0 Z " fill="#5782B9" transform="translate(7,6)"/>
<path d="M0 0 C0.66 0.33 1.32 0.66 2 1 C2.35915493 7.34507042 2.35915493 7.34507042 0.9375 9.9375 C-2.01168691 11.55479605 -4.70867559 11.18630138 -8 11 C-8.33 10.34 -8.66 9.68 -9 9 C-5.535 8.505 -5.535 8.505 -2 8 C-1.34 5.36 -0.68 2.72 0 0 Z " fill="#FF803F" transform="translate(30,21)"/>
<path d="M0 0 C0.66 0.33 1.32 0.66 2 1 C1.51856946 8.34181568 1.51856946 8.34181568 -0.625 11.0625 C-3.9861585 12.38927309 -6.525796 11.73492777 -10 11 C-10 10.67 -10 10.34 -10 10 C-7.36 9.34 -4.72 8.68 -2 8 C-1.34 5.36 -0.68 2.72 0 0 Z " fill="#DD4A5B" transform="translate(13,20)"/>
<path d="M0 0 C0.042721 1.66611905 0.04063832 3.33382885 0 5 C-1 6 -1 6 -3.5625 6.0625 C-4.7690625 6.0315625 -4.7690625 6.0315625 -6 6 C-6 5.34 -6 4.68 -6 4 C-5.34 3.67 -4.68 3.34 -4 3 C-4 2.34 -4 1.68 -4 1 C-1 0 -1 0 0 0 Z " fill="#466FA3" transform="translate(12,7)"/>
<path d="M0 0 C2.475 0.99 2.475 0.99 5 2 C4.67 3.32 4.34 4.64 4 6 C3.01 5.67 2.02 5.34 1 5 C0.67 3.35 0.34 1.7 0 0 Z " fill="#29CF63" transform="translate(3,13)"/>
<path d="M0 0 C0.66 0 1.32 0 2 0 C2.33 1.32 2.66 2.64 3 4 C1.35 4.33 -0.3 4.66 -2 5 C-1.125 1.125 -1.125 1.125 0 0 Z " fill="#FD6B65" transform="translate(14,0)"/>
</svg>
