<?xml version="1.0" encoding="UTF-8"?>
<svg version="1.1" xmlns="http://www.w3.org/2000/svg" width="32" height="32">
<path d="M0 0 C0.598125 0.185625 1.19625 0.37125 1.8125 0.5625 C4.16408762 1.22093687 4.16408762 1.22093687 7 0 C7 1.98 7 3.96 7 6 C7.66 6 8.32 6 9 6 C9 4.02 9 2.04 9 0 C9.99 0.33 10.98 0.66 12 1 C12 3.97 12 6.94 12 10 C10.02 10.99 10.02 10.99 8 12 C9.09589405 13.3263016 9.09589405 13.3263016 11.8125 13.0625 C13.3903125 13.0315625 13.3903125 13.0315625 15 13 C18.33333333 13 21.66666667 13 25 13 C25.33 8.71 25.66 4.42 26 0 C30 1 30 1 32 3 C32.17163731 5.56292317 32.23264558 8.00345857 32.1875 10.5625 C32.18685547 11.26052734 32.18621094 11.95855469 32.18554688 12.67773438 C32.14031158 17.85968842 32.14031158 17.85968842 31 19 C30.76518307 21.18292774 30.58636677 23.37203174 30.4375 25.5625 C30.35371094 26.76003906 30.26992188 27.95757813 30.18359375 29.19140625 C30.09271484 30.58166016 30.09271484 30.58166016 30 32 C28.68 31.67 27.36 31.34 26 31 C25.505 28.525 25.505 28.525 25 26 C22.69 27.98 20.38 29.96 18 32 C14.06326356 30.68775452 11.77280706 29.08089673 9 26 C8.34 27.98 7.68 29.96 7 32 C6.01 32 5.02 32 4 32 C4 25.4 4 18.8 4 12 C3.01 12 2.02 12 1 12 C-0.26237731 9.47524538 -0.09856404 7.68799534 -0.0625 4.875 C-0.05347656 3.96492187 -0.04445312 3.05484375 -0.03515625 2.1171875 C-0.02355469 1.41851562 -0.01195312 0.71984375 0 0 Z " fill="#C74E60" transform="translate(0,0)"/>
<path d="M0 0 C0.598125 0.185625 1.19625 0.37125 1.8125 0.5625 C4.16408762 1.22093687 4.16408762 1.22093687 7 0 C7 1.98 7 3.96 7 6 C7.66 6 8.32 6 9 6 C9 4.02 9 2.04 9 0 C9.99 0.33 10.98 0.66 12 1 C12 3.97 12 6.94 12 10 C10.02 10.99 10.02 10.99 8 12 C8 18.27 8 24.54 8 31 C6.68 31.33 5.36 31.66 4 32 C4 25.4 4 18.8 4 12 C3.01 12 2.02 12 1 12 C-0.26237731 9.47524538 -0.09856404 7.68799534 -0.0625 4.875 C-0.05347656 3.96492187 -0.04445312 3.05484375 -0.03515625 2.1171875 C-0.02355469 1.41851562 -0.01195312 0.71984375 0 0 Z " fill="#BFD9DB" transform="translate(0,0)"/>
<path d="M0 0 C4 1 4 1 6 3 C6.17163731 5.56292317 6.23264558 8.00345857 6.1875 10.5625 C6.18685547 11.26052734 6.18621094 11.95855469 6.18554688 12.67773438 C6.14031158 17.85968842 6.14031158 17.85968842 5 19 C4.76518307 21.18292774 4.58636677 23.37203174 4.4375 25.5625 C4.31181641 27.35880859 4.31181641 27.35880859 4.18359375 29.19140625 C4.12300781 30.11824219 4.06242187 31.04507812 4 32 C2.68 31.67 1.36 31.34 0 31 C0 20.77 0 10.54 0 0 Z " fill="#BFD9DB" transform="translate(26,0)"/>
<path d="M0 0 C0.33 0.66 0.66 1.32 1 2 C1.99 2 2.98 2 4 2 C6.1875 3 6.1875 3 8 4 C7.05125 4.12375 6.1025 4.2475 5.125 4.375 C1.91332809 4.71687177 1.91332809 4.71687177 0 7 C-0.33 6.01 -0.66 5.02 -1 4 C-3.01508358 3.26676204 -3.01508358 3.26676204 -5 3 C-2.25 0 -2.25 0 0 0 Z " fill="#F0CFD4" transform="translate(16,19)"/>
</svg>
