<?xml version="1.0" encoding="UTF-8"?>
<svg version="1.1" xmlns="http://www.w3.org/2000/svg" width="32" height="32">
<path d="M0 0 C0.97582031 -0.01224609 1.95164062 -0.02449219 2.95703125 -0.03710938 C4.35501953 -0.04000977 4.35501953 -0.04000977 5.78125 -0.04296875 C6.63783203 -0.04707764 7.49441406 -0.05118652 8.37695312 -0.05541992 C10.5 0.1875 10.5 0.1875 12.5 2.1875 C12.28602059 4.96923232 12.11097537 6.62178206 10.0234375 8.5546875 C6.39027348 12.44869406 6.38945488 19.43538098 6.3125 24.5625 C6.38876874 28.28685557 6.38876874 28.28685557 7.5 32.1875 C2.55 32.1875 -2.4 32.1875 -7.5 32.1875 C-7.83 31.1975 -8.16 30.2075 -8.5 29.1875 C-10.81 29.5175 -13.12 29.8475 -15.5 30.1875 C-16.20365602 28.6322088 -16.88729378 27.06785173 -17.5625 25.5 C-17.94535156 24.62988281 -18.32820313 23.75976562 -18.72265625 22.86328125 C-19.80221064 19.14722721 -19.20674857 16.60099713 -17.5 13.1875 C-17.5825 12.094375 -17.665 11.00125 -17.75 9.875 C-17.5 6.1875 -17.5 6.1875 -15.125 3.3125 C-10.23405288 -0.64683814 -6.09471828 0.00402557 0 0 Z " fill="#F6C4B7" transform="translate(19.5,-0.1875)"/>
<path d="M0 0 C1.75 2.1875 1.75 2.1875 3 5 C4.31037934 6.68477344 5.63823078 8.35648543 7 10 C6.67 10.763125 6.34 11.52625 6 12.3125 C4.82563314 14.99069135 4.82563314 14.99069135 5 18 C2.65791155 17.08918783 0.35892922 16.18544676 -1.875 15.03125 C-4.12783008 13.93796481 -6.36859202 13.14545552 -8.75 12.375 C-9.54921875 12.11460938 -10.3484375 11.85421875 -11.171875 11.5859375 C-11.77515625 11.39257812 -12.3784375 11.19921875 -13 11 C-13.25 4.375 -13.25 4.375 -11 1 C-7.26233499 -0.24588834 -3.90410844 -0.72996986 0 0 Z " fill="#DD5F69" transform="translate(18,3)"/>
<path d="M0 0 C1.79133978 -0.05391993 3.58313899 -0.09275571 5.375 -0.125 C6.37273438 -0.14820312 7.37046875 -0.17140625 8.3984375 -0.1953125 C11 0 11 0 13 2 C12.89834392 5.76127491 12.00920966 6.98989184 9.4375 9.8125 C8.633125 10.534375 7.82875 11.25625 7 12 C3.62528989 10.55369567 1.21807236 8.95742982 -1 6 C-0.75 2.75 -0.75 2.75 0 0 Z " fill="#5FCFF0" transform="translate(19,0)"/>
<path d="M0 0 C0 0.99 0 1.98 0 3 C1.65 3 3.3 3 5 3 C5.66 4.32 6.32 5.64 7 7 C6.67 7.33 6.34 7.66 6 8 C6.66 8.66 7.32 9.32 8 10 C8.125 12.625 8.125 12.625 8 15 C4.91490251 13.80023986 1.94102888 12.51795039 -1 11 C-1.7425 10.62875 -2.485 10.2575 -3.25 9.875 C-4.11625 9.441875 -4.11625 9.441875 -5 9 C-5.36666667 3.5 -5.36666667 3.5 -3.625 1.125 C-2 0 -2 0 0 0 Z " fill="#E37A82" transform="translate(15,6)"/>
<path d="M0 0 C0.66 0 1.32 0 2 0 C3.03435556 1.64556566 4.02763513 3.3170608 5 5 C6.31037934 6.68477344 7.63823078 8.35648543 9 10 C8.67 10.66 8.34 11.32 8 12 C6.68 11.67 5.36 11.34 4 11 C4 9.33333333 4 7.66666667 4 6 C3.01 5.67 2.02 5.34 1 5 C0.67 3.35 0.34 1.7 0 0 Z " fill="#D53C49" transform="translate(16,3)"/>
<path d="M0 0 C3.3 0 6.6 0 10 0 C9.67 0.99 9.34 1.98 9 3 C5.7 3.33 2.4 3.66 -1 4 C-0.67 2.68 -0.34 1.36 0 0 Z " fill="#F4B7AD" transform="translate(9,0)"/>
</svg>
