<?xml version="1.0" encoding="UTF-8"?>
<svg version="1.1" xmlns="http://www.w3.org/2000/svg" width="32" height="32">
<path d="M0 0 C4.35229172 -0.42669527 6.32886661 -0.51064497 9.875 2.1875 C11.98263518 4.97701716 12.70554242 6.56466156 13 10 C13.268125 8.72125 13.53625 7.4425 13.8125 6.125 C14.57190099 2.50324145 14.70077803 2.19948132 18 0 C20.04296875 -0.1953125 20.04296875 -0.1953125 22.1875 -0.125 C24.0746875 -0.063125 24.0746875 -0.063125 26 0 C25.3993994 7.32732733 25.3993994 7.32732733 23.8125 10 C21.18759888 11.44822131 18.93829584 11.19588639 16 11 C15.67 12.65 15.34 14.3 15 16 C15.804375 16.4125 16.60875 16.825 17.4375 17.25 C20 19 20 19 20.8125 21.1875 C20.874375 21.785625 20.93625 22.38375 21 23 C22.98 23 24.96 23 27 23 C26.63420482 25.55510665 26.29986672 26.72933645 24.35546875 28.484375 C14.98896963 33.9523853 5.37837994 32.22098588 -5 31 C-5 27.37 -5 23.74 -5 20 C-3.77023437 19.80083984 -3.77023437 19.80083984 -2.515625 19.59765625 C-1.43796875 19.42105469 -0.3603125 19.24445312 0.75 19.0625 C1.81734375 18.88847656 2.8846875 18.71445312 3.984375 18.53515625 C6.36347593 18.11295829 8.66915211 17.62797116 11 17 C10.51792644 14.49641128 10.51792644 14.49641128 9 12 C6.67793475 11.29508733 4.34406932 10.62787571 2 10 C-0.50790187 6.94690208 -0.17399715 3.82793738 0 0 Z " fill="#8CDA5A" transform="translate(5,0)"/>
<path d="M0 0 C0.66 0.66 1.32 1.32 2 2 C4.65537372 2.56520003 7.29144713 2.73788198 10 3 C10.33 3.99 10.66 4.98 11 6 C7.7 6 4.4 6 1 6 C1 6.66 1 7.32 1 8 C2.58367747 7.85795259 4.16693318 7.71119847 5.75 7.5625 C6.63171875 7.48128906 7.5134375 7.40007813 8.421875 7.31640625 C10.69350452 7.03761535 12.79851823 6.61209423 15 6 C15 5.34 15 4.68 15 4 C16.98 4 18.96 4 21 4 C20.63420482 6.55510665 20.29986672 7.72933645 18.35546875 9.484375 C8.98896963 14.9523853 -0.62162006 13.22098588 -11 12 C-11 8.37 -11 4.74 -11 1 C-7.0332173 0.20664346 -3.97786955 -0.2651913 0 0 Z " fill="#FBE1E1" transform="translate(11,19)"/>
<path d="M0 0 C2.5 1.75 2.5 1.75 4 4 C4 5.32 4 6.64 4 8 C0.78817851 9.90608098 -1.53882603 10.22266247 -5.25 10.125 C-6.14203125 10.10695313 -7.0340625 10.08890625 -7.953125 10.0703125 C-8.96632813 10.03550781 -8.96632813 10.03550781 -10 10 C-10 9.34 -10 8.68 -10 8 C-6.7 8 -3.4 8 0 8 C-0.33 7.34 -0.66 6.68 -1 6 C-3.02600175 5.77488869 -5.05459276 5.5559122 -7.08984375 5.44140625 C-9 5 -9 5 -11 2 C-7.32316242 -0.45122505 -4.27282747 -0.70497355 0 0 Z " fill="#686060" transform="translate(22,17)"/>
<path d="M0 0 C4.43677521 -0.43497796 6.36663666 -0.47502251 10 2.25 C12 5 12 5 11.8125 7.3125 C11.544375 7.869375 11.27625 8.42625 11 9 C9.68 8.34 8.36 7.68 7 7 C7.66 8.32 8.32 9.64 9 11 C5.625 10.75 5.625 10.75 2 10 C-0.55094982 7.00540673 -0.17248345 3.79463585 0 0 Z " fill="#C0E922" transform="translate(5,0)"/>
<path d="M0 0 C1.98 0 3.96 0 6 0 C5.76953125 1.828125 5.76953125 1.828125 5 4 C3.07421875 5.484375 3.07421875 5.484375 0.6875 6.75 C-0.09238281 7.17796875 -0.87226563 7.6059375 -1.67578125 8.046875 C-4 9 -4 9 -8 9 C-8 7.68 -8 6.36 -8 5 C-8.99 4.67 -9.98 4.34 -11 4 C-5.555 3.01 -5.555 3.01 0 2 C0 1.34 0 0.68 0 0 Z " fill="#F7CBCF" transform="translate(26,23)"/>
<path d="M0 0 C2.95409701 1.37154504 5.44008376 2.98863724 8 5 C9.65 3.35 11.3 1.7 13 0 C13.99 0.33 14.98 0.66 16 1 C15.401875 1.70125 14.80375 2.4025 14.1875 3.125 C12.02259039 5.97030977 10.50403364 8.76632767 9 12 C8.01 12 7.02 12 6 12 C5.73445312 11.38511719 5.46890625 10.77023437 5.1953125 10.13671875 C4.84210937 9.32847656 4.48890625 8.52023437 4.125 7.6875 C3.77695313 6.88699219 3.42890625 6.08648437 3.0703125 5.26171875 C1.97428106 2.8038166 1.97428106 2.8038166 0 0 Z " fill="#61C575" transform="translate(10,5)"/>
<path d="M0 0 C3.38019657 1.44865567 5.73059668 3.08219573 8 6 C8.25 9.25 8.25 9.25 8 12 C7.34 12 6.68 12 6 12 C5.73445312 11.38511719 5.46890625 10.77023437 5.1953125 10.13671875 C4.84210937 9.32847656 4.48890625 8.52023437 4.125 7.6875 C3.77695313 6.88699219 3.42890625 6.08648437 3.0703125 5.26171875 C1.97428106 2.8038166 1.97428106 2.8038166 0 0 Z " fill="#8CDB5B" transform="translate(10,5)"/>
<path d="M0 0 C0 1.65 0 3.3 0 5 C-2.375 5.1875 -2.375 5.1875 -5 5 C-5.66 4.01 -6.32 3.02 -7 2 C-4 0 -4 0 0 0 Z " fill="#817777" transform="translate(18,17)"/>
</svg>
