<?xml version="1.0" encoding="UTF-8"?>
<svg version="1.1" xmlns="http://www.w3.org/2000/svg" width="32" height="32">
<path d="M0 0 C2.91387197 0.2913872 3.82565583 0.79452294 5.75 3.0625 C6.36875 4.0215625 6.36875 4.0215625 7 5 C11.20529458 3.89324387 11.20529458 3.89324387 14.5625 1.3125 C16 0 16 0 18.4375 0 C22.36270314 1.53178659 24.01448169 4.3150816 26.08984375 7.86328125 C27.76090914 11.78634034 27.54659218 15.82482599 27 20 C25.00342873 23.85544798 23.60292362 25.59805092 20 28 C17.5625 28.375 17.5625 28.375 15 28 C12.75567018 26.12972515 11.30556798 24.61113596 10 22 C6.97065509 21.34227572 6.97065509 21.34227572 4 21 C4.495 21.598125 4.99 22.19625 5.5 22.8125 C7 25 7 25 7 28 C6.113125 27.814375 5.22625 27.62875 4.3125 27.4375 C1.14821189 27.01957516 -0.94839642 27.19222258 -4 28 C-3.38722388 25.03824877 -2.74627478 23.61941217 -1 21 C-1.66 20.175 -2.32 19.35 -3 18.5 C-5.11307884 15.3001949 -5.58487763 12.7688499 -5.40234375 8.96484375 C-4.66417423 5.35999649 -2.56844317 2.56844317 0 0 Z " fill="#E74673" transform="translate(5,2)"/>
<path d="M0 0 C2.91387197 0.2913872 3.82565583 0.79452294 5.75 3.0625 C6.36875 4.0215625 6.36875 4.0215625 7 5 C11.20529458 3.89324387 11.20529458 3.89324387 14.5625 1.3125 C16 0 16 0 18.4375 0 C22.3626589 1.53176933 24.0069971 4.3154415 26.09375 7.85546875 C27.155591 10.36818731 27.30005324 12.27830896 27.3125 15 C27.32925781 15.845625 27.34601562 16.69125 27.36328125 17.5625 C26.93244007 20.45330535 25.90529726 21.82826275 24 24 C24 22.35 24 20.7 24 19 C23.01 19.99 22.02 20.98 21 22 C20.34 21.67 19.68 21.34 19 21 C20.010625 20.29875 21.02125 19.5975 22.0625 18.875 C23.74393627 17.55752514 23.74393627 17.55752514 25 16 C25.07575878 12.95361173 25.07575878 12.95361173 24 10 C23.814375 9.05125 23.62875 8.1025 23.4375 7.125 C23.293125 6.42375 23.14875 5.7225 23 5 C22.34 5 21.68 5 21 5 C20.67 4.34 20.34 3.68 20 3 C18.68 3 17.36 3 16 3 C15.67 3.66 15.34 4.32 15 5 C14.236875 5.28875 13.47375 5.5775 12.6875 5.875 C9.55070942 7.18807513 8.00866653 8.2473829 6 11 C5.66582071 14.6675213 5.66582071 14.6675213 6 18 C8.475 18.99 8.475 18.99 11 20 C11 20.33 11 20.66 11 21 C8.69 21 6.38 21 4 21 C4.495 21.598125 4.99 22.19625 5.5 22.8125 C7 25 7 25 7 28 C6.113125 27.814375 5.22625 27.62875 4.3125 27.4375 C1.14821189 27.01957516 -0.94839642 27.19222258 -4 28 C-3.38722388 25.03824877 -2.74627478 23.61941217 -1 21 C-1.66 20.175 -2.32 19.35 -3 18.5 C-5.11307884 15.3001949 -5.58487763 12.7688499 -5.40234375 8.96484375 C-4.66417423 5.35999649 -2.56844317 2.56844317 0 0 Z " fill="#65276D" transform="translate(5,2)"/>
<path d="M0 0 C0.70125 0.28875 1.4025 0.5775 2.125 0.875 C2.74568966 9.90948276 2.74568966 9.90948276 0.4375 13.5 C-2.29317986 15.12364748 -3.75050419 15.36834144 -6.875 14.875 C-8.875 12.875 -8.875 12.875 -9.375 9.625 C-8.792857 5.25892749 -7.73551769 3.76490662 -4.54296875 0.8984375 C-2.875 -0.125 -2.875 -0.125 0 0 Z " fill="#F4D4D9" transform="translate(18.875,7.125)"/>
<path d="M0 0 C1.32 0.66 2.64 1.32 4 2 C4 2.99 4 3.98 4 5 C2.68 5.33 1.36 5.66 0 6 C1.98 6 3.96 6 6 6 C6 9.01490557 5.48047265 10.86864114 4.5 13.6875 C4.2215625 14.49574219 3.943125 15.30398437 3.65625 16.13671875 C3.33140625 17.05904297 3.33140625 17.05904297 3 18 C2.01 18 1.02 18 0 18 C-4.01753507 12.03456914 -4.01753507 12.03456914 -3.9375 7.3125 C-3.04633176 4.16370554 -2.19315556 2.38386474 0 0 Z " fill="#9A959D" transform="translate(5,4)"/>
<path d="M0 0 C0.33 0.66 0.66 1.32 1 2 C0.01 2.495 0.01 2.495 -1 3 C-0.67 3.99 -0.34 4.98 0 6 C0.66 4.68 1.32 3.36 2 2 C2.99 2 3.98 2 5 2 C4.67 2.33 4.34 2.66 4 3 C6.96175123 2.38722388 8.38058783 1.74627478 11 0 C10.51470588 6.43014706 10.51470588 6.43014706 8.25 8.9375 C5.50508782 10.23370853 3.99925788 10.52487013 1 10 C-1.79035429 7.7522146 -2.85910005 6.42269984 -4 3 C-2.68 2.01 -1.36 1.02 0 0 Z " fill="#7E2F71" transform="translate(19,20)"/>
<path d="M0 0 C2.31 0 4.62 0 7 0 C7 3.01490557 6.48047265 4.86864114 5.5 7.6875 C5.08234375 8.89986328 5.08234375 8.89986328 4.65625 10.13671875 C4.4396875 10.75160156 4.223125 11.36648437 4 12 C1.95780294 10.30820672 1.08206694 9.36272334 0.48828125 6.73828125 C0.43027344 5.93777344 0.37226562 5.13726562 0.3125 4.3125 C0.24675781 3.50425781 0.18101562 2.69601563 0.11328125 1.86328125 C0.07589844 1.24839844 0.03851562 0.63351562 0 0 Z " fill="#86798D" transform="translate(4,10)"/>
<path d="M0 0 C1.65 0.33 3.3 0.66 5 1 C5 1.66 5 2.32 5 3 C5.66 3 6.32 3 7 3 C7.33 4.65 7.66 6.3 8 8 C4.25 11 4.25 11 2 11 C2.020625 10.195625 2.04125 9.39125 2.0625 8.5625 C2.29633621 6.06645115 2.29633621 6.06645115 1 5 C1 4.34 1 3.68 1 3 C0.34 3 -0.32 3 -1 3 C-0.67 2.01 -0.34 1.02 0 0 Z " fill="#F74872" transform="translate(21,4)"/>
<path d="M0 0 C1.9375 0.125 1.9375 0.125 4 1 C5.04625409 2.29735507 6.04701223 3.63266972 7 5 C7.99 5.66 8.98 6.32 10 7 C6.5980513 9.09350689 3.94727588 9.17942163 0 9 C-0.33 8.34 -0.66 7.68 -1 7 C0.65 7 2.3 7 4 7 C3.34 5.68 2.68 4.36 2 3 C-0.12364481 2.77390663 -0.12364481 2.77390663 -1.625 4.5 C-2.07875 4.995 -2.5325 5.49 -3 6 C-2.42655063 3.13275314 -2.1385485 2.1385485 0 0 Z " fill="#6D3A79" transform="translate(5,2)"/>
<path d="M0 0 C2.625 0.375 2.625 0.375 5 1 C5.625 2.875 5.625 2.875 6 5 C5.34 5.66 4.68 6.32 4 7 C1.375 6.625 1.375 6.625 -1 6 C-1.625 4.125 -1.625 4.125 -2 2 C-1.34 1.34 -0.68 0.68 0 0 Z " fill="#B98D5B" transform="translate(13,13)"/>
<path d="M0 0 C2.475 0.495 2.475 0.495 5 1 C4.34 3.31 3.68 5.62 3 8 C4.32 7.01 5.64 6.02 7 5 C7.66 5.33 8.32 5.66 9 6 C6.36 8.31 3.72 10.62 1 13 C-0.32229189 10.35541621 -0.09677194 8.32238699 -0.0625 5.375 C-0.05347656 4.37210938 -0.04445313 3.36921875 -0.03515625 2.3359375 C-0.02355469 1.56507812 -0.01195313 0.79421875 0 0 Z " fill="#963974" transform="translate(20,7)"/>
<path d="M0 0 C0.33 0 0.66 0 1 0 C1.62068966 9.03448276 1.62068966 9.03448276 -0.6875 12.625 C-3.43045633 14.25594701 -4.86461917 14.57757015 -8 14 C-8.66 13.01 -9.32 12.02 -10 11 C-9.01 11 -8.02 11 -7 11 C-3.70148574 10.64022702 -3.70148574 10.64022702 -1 9 C-0.76807135 7.48530552 -0.58784762 5.96245438 -0.4375 4.4375 C-0.35371094 3.61121094 -0.26992188 2.78492188 -0.18359375 1.93359375 C-0.12300781 1.29550781 -0.06242187 0.65742188 0 0 Z " fill="#EBC0C9" transform="translate(20,8)"/>
<path d="M0 0 C0.66 0 1.32 0 2 0 C2 0.99 2 1.98 2 3 C1.34 3 0.68 3 0 3 C0 3.66 0 4.32 0 5 C-0.66 5.474375 -1.32 5.94875 -2 6.4375 C-2.99 7.2109375 -2.99 7.2109375 -4 8 C-4 8.99 -4 9.98 -4 11 C-4.99 10.34 -5.98 9.68 -7 9 C-6.67 8.01 -6.34 7.02 -6 6 C-5.34 6 -4.68 6 -4 6 C-3.71125 5.38125 -3.4225 4.7625 -3.125 4.125 C-2 2 -2 2 0 0 Z " fill="#F64974" transform="translate(24,16)"/>
<path d="M0 0 C0.33 0.99 0.66 1.98 1 3 C-0.625 5.6875 -0.625 5.6875 -3 8 C-5.75 8.3125 -5.75 8.3125 -8 8 C-5.33333333 5.33333333 -2.66666667 2.66666667 0 0 Z " fill="#F15F8D" transform="translate(29,20)"/>
<path d="M0 0 C1.32 0.66 2.64 1.32 4 2 C4 2.99 4 3.98 4 5 C2.02 5.33 0.04 5.66 -2 6 C-2 3 -2 3 0 0 Z " fill="#8A7F90" transform="translate(5,4)"/>
<path d="M0 0 C0.99 0.33 1.98 0.66 3 1 C2.05125 1.9075 1.1025 2.815 0.125 3.75 C-2.14549867 6.00978877 -3.83296506 7.96570916 -5 11 C-5.3125 8.3125 -5.3125 8.3125 -5 5 C-2.5 2.125 -2.5 2.125 0 0 Z " fill="#F7E2E5" transform="translate(15,8)"/>
<path d="M0 0 C1.65 0.33 3.3 0.66 5 1 C5 1.66 5 2.32 5 3 C5.66 3.33 6.32 3.66 7 4 C5.02 4.33 3.04 4.66 1 5 C1 4.34 1 3.68 1 3 C0.34 3 -0.32 3 -1 3 C-0.67 2.01 -0.34 1.02 0 0 Z " fill="#DD376E" transform="translate(21,4)"/>
<path d="M0 0 C1.9375 0.3125 1.9375 0.3125 4 1 C4.33 1.99 4.66 2.98 5 4 C2.69 4 0.38 4 -2 4 C-1.34 2.68 -0.68 1.36 0 0 Z " fill="#6C4578" transform="translate(5,25)"/>
<path d="M0 0 C0.66 0.33 1.32 0.66 2 1 C0.35 2.98 -1.3 4.96 -3 7 C-3.66 6.67 -4.32 6.34 -5 6 C-3.63016497 2.83884224 -3.0109362 2.0072908 0 0 Z " fill="#CB3E71" transform="translate(27,17)"/>
</svg>
