<?xml version="1.0" encoding="UTF-8"?>
<svg version="1.1" xmlns="http://www.w3.org/2000/svg" width="24" height="24">
<path d="M0 0 C1.27875 0.00257812 2.5575 0.00515625 3.875 0.0078125 C5.15375 0.00523438 6.4325 0.00265625 7.75 0 C10.875 0.1328125 10.875 0.1328125 11.875 1.1328125 C11.96131874 2.47548663 11.98206473 3.82255572 11.97265625 5.16796875 C11.96943359 5.97685547 11.96621094 6.78574219 11.96289062 7.61914062 C11.95451172 8.46927734 11.94613281 9.31941406 11.9375 10.1953125 C11.93298828 11.04931641 11.92847656 11.90332031 11.92382812 12.78320312 C11.91200373 14.89976913 11.89406769 17.01629935 11.875 19.1328125 C8.95982708 18.05880142 7.09689824 17.35471074 4.875 15.1328125 C4.1325 15.6071875 3.39 16.0815625 2.625 16.5703125 C0.23321432 17.92928164 -1.49173854 18.55326991 -4.125 19.1328125 C-4.15183987 16.15358657 -4.17176037 13.17459955 -4.1875 10.1953125 C-4.19587891 9.34517578 -4.20425781 8.49503906 -4.21289062 7.61914062 C-4.21611328 6.81025391 -4.21933594 6.00136719 -4.22265625 5.16796875 C-4.22789307 4.419104 -4.23312988 3.67023926 -4.23852539 2.89868164 C-4.03573904 -0.25562732 -3.20783172 0.13633285 0 0 Z M-2.125 3.1328125 C-2.125 7.0928125 -2.125 11.0528125 -2.125 15.1328125 C-0.805 14.4728125 0.515 13.8128125 1.875 13.1328125 C1.875 12.4728125 1.875 11.8128125 1.875 11.1328125 C3.195 11.1328125 4.515 11.1328125 5.875 11.1328125 C6.205 11.7928125 6.535 12.4528125 6.875 13.1328125 C7.865 13.7928125 8.855 14.4528125 9.875 15.1328125 C9.875 11.1728125 9.875 7.2128125 9.875 3.1328125 C5.915 3.1328125 1.955 3.1328125 -2.125 3.1328125 Z " fill="#080808" transform="translate(8.125,2.8671875)"/>
</svg>
