<?xml version="1.0" encoding="UTF-8"?>
<svg version="1.1" xmlns="http://www.w3.org/2000/svg" width="32" height="32">
<path d="M0 0 C1.2065625 0.0309375 1.2065625 0.0309375 2.4375 0.0625 C2.4375 0.7225 2.4375 1.3825 2.4375 2.0625 C3.07558594 2.12308594 3.71367187 2.18367187 4.37109375 2.24609375 C5.61052734 2.37177734 5.61052734 2.37177734 6.875 2.5 C8.11056641 2.62181641 8.11056641 2.62181641 9.37109375 2.74609375 C11.4375 3.0625 11.4375 3.0625 12.4375 4.0625 C12.47813832 5.72867115 12.480221 7.39638095 12.4375 9.0625 C13.4275 9.0625 14.4175 9.0625 15.4375 9.0625 C14.66975241 13.66898554 14.66975241 13.66898554 13.40234375 15.81640625 C12.08649458 18.87961789 12.2821431 21.4331514 12.375 24.75 C12.42881799 26.85358147 12.4580428 28.95833048 12.4375 31.0625 C11.4375 32.0625 11.4375 32.0625 9.12084961 32.17602539 C8.12061768 32.17078857 7.12038574 32.16555176 6.08984375 32.16015625 C4.63179321 32.15640991 4.63179321 32.15640991 3.14428711 32.15258789 C1.90042236 32.14348389 0.65655762 32.13437988 -0.625 32.125 C-4.564375 32.104375 -8.50375 32.08375 -12.5625 32.0625 C-12.5625 22.8225 -12.5625 13.5825 -12.5625 4.0625 C-9.5925 3.0725 -6.6225 2.0825 -3.5625 1.0625 C-2.5625 0.0625 -2.5625 0.0625 0 0 Z " fill="#C2562D" transform="translate(14.5625,-0.0625)"/>
<path d="M0 0 C5.94 0 11.88 0 18 0 C18 2.97 18 5.94 18 9 C17.34 9.66 16.68 10.32 16 11 C13.27130593 10.96712417 10.7033382 10.43602229 8 10 C8 11.32 8 12.64 8 14 C9.32 14 10.64 14 12 14 C12 13.34 12 12.68 12 12 C12.99 12.33 13.98 12.66 15 13 C14.57847656 13.55429687 14.15695313 14.10859375 13.72265625 14.6796875 C13.17480469 15.40414063 12.62695312 16.12859375 12.0625 16.875 C11.51722656 17.59429688 10.97195313 18.31359375 10.41015625 19.0546875 C8.96035376 20.94357079 8.96035376 20.94357079 8 23 C5.36 23 2.72 23 0 23 C0 15.41 0 7.82 0 0 Z " fill="#DFD8D8" transform="translate(5,5)"/>
<path d="M0 0 C1.2065625 0.0309375 1.2065625 0.0309375 2.4375 0.0625 C2.4375 0.7225 2.4375 1.3825 2.4375 2.0625 C3.07558594 2.12308594 3.71367187 2.18367187 4.37109375 2.24609375 C5.61052734 2.37177734 5.61052734 2.37177734 6.875 2.5 C8.11056641 2.62181641 8.11056641 2.62181641 9.37109375 2.74609375 C11.4375 3.0625 11.4375 3.0625 12.4375 4.0625 C12.47813832 5.72867115 12.480221 7.39638095 12.4375 9.0625 C13.4275 9.0625 14.4175 9.0625 15.4375 9.0625 C14.66975241 13.66898554 14.66975241 13.66898554 13.40234375 15.81640625 C12.08649458 18.87961789 12.2821431 21.4331514 12.375 24.75 C12.42881799 26.85358147 12.4580428 28.95833048 12.4375 31.0625 C11.4375 32.0625 11.4375 32.0625 9.12084961 32.17602539 C8.12061768 32.17078857 7.12038574 32.16555176 6.08984375 32.16015625 C4.63179321 32.15640991 4.63179321 32.15640991 3.14428711 32.15258789 C1.90042236 32.14348389 0.65655762 32.13437988 -0.625 32.125 C-4.564375 32.104375 -8.50375 32.08375 -12.5625 32.0625 C-12.5625 22.8225 -12.5625 13.5825 -12.5625 4.0625 C-9.5925 3.0725 -6.6225 2.0825 -3.5625 1.0625 C-2.5625 0.0625 -2.5625 0.0625 0 0 Z M-11.5625 5.0625 C-11.5625 13.6425 -11.5625 22.2225 -11.5625 31.0625 C-4.3025 31.0625 2.9575 31.0625 10.4375 31.0625 C10.4375 27.1025 10.4375 23.1425 10.4375 19.0625 C8.4575 20.0525 8.4575 20.0525 6.4375 21.0625 C7.2625 20.299375 8.0875 19.53625 8.9375 18.75 C11.77805197 16.30815858 11.77805197 16.30815858 11.4375 13.0625 C12.4275 12.7325 13.4175 12.4025 14.4375 12.0625 C14.4375 11.4025 14.4375 10.7425 14.4375 10.0625 C13.4475 9.7325 12.4575 9.4025 11.4375 9.0625 C10.7775 7.7425 10.1175 6.4225 9.4375 5.0625 C2.5075 5.0625 -4.4225 5.0625 -11.5625 5.0625 Z " fill="#060708" transform="translate(14.5625,-0.0625)"/>
<path d="M0 0 C0.66 0 1.32 0 2 0 C2 7.59 2 15.18 2 23 C4.31 23 6.62 23 9 23 C9 23.66 9 24.32 9 25 C12.63 24.67 16.26 24.34 20 24 C20 21.03 20 18.06 20 15 C20.66 14.67 21.32 14.34 22 14 C22 17.96 22 21.92 22 26 C14.74 26 7.48 26 0 26 C0 17.42 0 8.84 0 0 Z " fill="#116281" transform="translate(3,5)"/>
<path d="M0 0 C0 0.99 0 1.98 0 3 C0.598125 2.690625 1.19625 2.38125 1.8125 2.0625 C4 1 4 1 7 0 C7.09765625 6.15234375 7.09765625 6.15234375 7 8 C6 9 6 9 3.49609375 9.09765625 C1.98208984 9.08025391 1.98208984 9.08025391 0.4375 9.0625 C-0.57441406 9.05347656 -1.58632812 9.04445313 -2.62890625 9.03515625 C-3.41136719 9.02355469 -4.19382812 9.01195312 -5 9 C-3.90931332 5.22454612 -3.0916909 2.52956528 0 0 Z " fill="#31383B" transform="translate(17,21)"/>
<path d="M0 0 C0 0.66 0 1.32 0 2 C2.64 2.33 5.28 2.66 8 3 C7.67 5.97 7.34 8.94 7 12 C6.67 12 6.34 12 6 12 C6 9.69 6 7.38 6 5 C5.01 5.33 4.02 5.66 3 6 C1.1903182 6.11880354 -0.62396447 6.1751965 -2.4375 6.1875 C-3.85869141 6.20876953 -3.85869141 6.20876953 -5.30859375 6.23046875 C-8.04501644 5.99614518 -9.66428123 5.39701383 -12 4 C-10.68 4 -9.36 4 -8 4 C-8 3.34 -8 2.68 -8 2 C-4.77208445 -0.1519437 -3.71599191 -0.20086443 0 0 Z " fill="#1C1714" transform="translate(17,0)"/>
<path d="M0 0 C7.42857143 -0.14285714 7.42857143 -0.14285714 11 1 C11 2.32 11 3.64 11 5 C8.36 5 5.72 5 3 5 C2.87625 4.360625 2.7525 3.72125 2.625 3.0625 C2.315625 2.0415625 2.315625 2.0415625 2 1 C1.34 0.67 0.68 0.34 0 0 Z M0 2 C0.66 2.66 1.32 3.32 2 4 C0.68 4.33 -0.64 4.66 -2 5 C-2.33 4.34 -2.66 3.68 -3 3 C-2.01 2.67 -1.02 2.34 0 2 Z " fill="#BDB8B8" transform="translate(10,7)"/>
<path d="M0 0 C4.29 0.33 8.58 0.66 13 1 C13 1.33 13 1.66 13 2 C11.865625 2.12375 10.73125 2.2475 9.5625 2.375 C7.7990625 2.684375 7.7990625 2.684375 6 3 C5.67 3.66 5.34 4.32 5 5 C3.35 4.67 1.7 4.34 0 4 C0 2.68 0 1.36 0 0 Z " fill="#E5DEDE" transform="translate(6,5)"/>
<path d="M0 0 C0.66 1.32 1.32 2.64 2 4 C2.99 4.33 3.98 4.66 5 5 C4 8 4 8 0.9375 9.6875 C-0.031875 10.120625 -1.00125 10.55375 -2 11 C-1.34 7.37 -0.68 3.74 0 0 Z " fill="#4F6165" transform="translate(24,5)"/>
<path d="M0 0 C0 0.66 0 1.32 0 2 C0.99 2 1.98 2 3 2 C3 2.66 3 3.32 3 4 C0.03 4 -2.94 4 -6 4 C-6 3.34 -6 2.68 -6 2 C-3 0 -3 0 0 0 Z " fill="#E86D37" transform="translate(16,1)"/>
<path d="M0 0 C0.33 0 0.66 0 1 0 C1 2.31 1 4.62 1 7 C-0.98 7 -2.96 7 -5 7 C-4.19152271 5.83054208 -3.37810888 4.66449539 -2.5625 3.5 C-2.11003906 2.8503125 -1.65757813 2.200625 -1.19140625 1.53125 C-0.79824219 1.0259375 -0.40507812 0.520625 0 0 Z " fill="#E9E3E3" transform="translate(22,21)"/>
<path d="M0 0 C2.64 0 5.28 0 8 0 C8 0.66 8 1.32 8 2 C6.68 2 5.36 2 4 2 C4 2.66 4 3.32 4 4 C2.68 4 1.36 4 0 4 C0 2.68 0 1.36 0 0 Z " fill="#8C8888" transform="translate(13,15)"/>
<path d="M0 0 C2.64 0 5.28 0 8 0 C8 0.99 8 1.98 8 3 C5.36 3 2.72 3 0 3 C0 2.01 0 1.02 0 0 Z " fill="#747272" transform="translate(13,9)"/>
</svg>
