<?xml version="1.0" encoding="UTF-8"?>
<svg version="1.1" xmlns="http://www.w3.org/2000/svg" width="32" height="32">
<path d="M0 0 C0.66 0.33 1.32 0.66 2 1 C1.34 2.98 0.68 4.96 0 7 C0.99 7.33 1.98 7.66 3 8 C2.34 9.65 1.68 11.3 1 13 C0.34 13 -0.32 13 -1 13 C-1 13.99 -1 14.98 -1 16 C-2.8125 18 -2.8125 18 -5 20 C-5.5775 20.5775 -6.155 21.155 -6.75 21.75 C-7.1625 22.1625 -7.575 22.575 -8 23 C-7.01 23 -6.02 23 -5 23 C-5 23.66 -5 24.32 -5 25 C-8.81615468 27.47045803 -12.84744248 27.43831912 -17.25 27.625 C-18.36761719 27.68300781 -18.36761719 27.68300781 -19.5078125 27.7421875 C-21.3381524 27.83605108 -23.16904143 27.91909718 -25 28 C-24.5547115 22.72684667 -23.91626837 17.98229776 -22 13 C-21.34 13.33 -20.68 13.66 -20 14 C-18.65022151 13.36729133 -17.31647119 12.69937532 -16 12 C-15.34 12 -14.68 12 -14 12 C-14 11.34 -14 10.68 -14 10 C-13.34 10 -12.68 10 -12 10 C-11.773125 9.443125 -11.54625 8.88625 -11.3125 8.3125 C-9.61382022 5.31958801 -7.57927313 3.26472763 -5 1 C-4.01 1 -3.02 1 -2 1 C-1.34 0.67 -0.68 0.34 0 0 Z M-23 21 C-22 25 -22 25 -22 25 Z " fill="#F5B45D" transform="translate(27,2)"/>
<path d="M0 0 C0.66 0.33 1.32 0.66 2 1 C7.60703213 1.21377721 7.60703213 1.21377721 13 0 C13 0.66 13 1.32 13 2 C9.40537669 4.25998595 6.43404325 4.20868087 2.25 4.125 C1.07953125 4.10695313 -0.0909375 4.08890625 -1.296875 4.0703125 C-2.63492187 4.03550781 -2.63492187 4.03550781 -4 4 C-2.68 3.34 -1.36 2.68 0 2 C0 1.34 0 0.68 0 0 Z " fill="#DFAE6A" transform="translate(9,25)"/>
<path d="M0 0 C0.66 0.33 1.32 0.66 2 1 C2 4.3 2 7.6 2 11 C0.02 11.99 0.02 11.99 -2 13 C-2.19294408 8.17639811 -1.75747614 4.50353262 0 0 Z " fill="#DEA95C" transform="translate(5,15)"/>
<path d="M0 0 C0.33 0 0.66 0 1 0 C1.375 2.25 1.375 2.25 1 5 C-2 7.3125 -2 7.3125 -5 9 C-5.33 8.01 -5.66 7.02 -6 6 C-5.34 6 -4.68 6 -4 6 C-3.71125 5.38125 -3.4225 4.7625 -3.125 4.125 C-2 2 -2 2 0 0 Z " fill="#EDAD5B" transform="translate(19,6)"/>
<path d="M0 0 C1.65 0.33 3.3 0.66 5 1 C4.34 2.98 3.68 4.96 3 7 C1.68 6.34 0.36 5.68 -1 5 C-0.67 3.35 -0.34 1.7 0 0 Z " fill="#EDB366" transform="translate(25,8)"/>
</svg>
